<?xml version="1.0" encoding="UTF-8"?>
<!DOCTYPE svg PUBLIC "-//W3C//DTD SVG 1.1//EN" "http://www.w3.org/Graphics/SVG/1.1/DTD/svg11.dtd">
<svg xmlns="http://www.w3.org/2000/svg" version="1.1" width="512px" height="512px" style="shape-rendering:geometricPrecision; text-rendering:geometricPrecision; image-rendering:optimizeQuality; fill-rule:evenodd; clip-rule:evenodd" xmlns:xlink="http://www.w3.org/1999/xlink">
<g><path style="opacity:0.991" fill="#fe862b" d="M 90.5,14.5 C 140.5,65.1667 190.833,115.5 241.5,165.5C 241.666,174.839 241.5,184.173 241,193.5C 240.536,198.054 239.369,202.387 237.5,206.5C 215.5,184.833 193.5,163.167 171.5,141.5C 183.103,134.253 184.103,125.753 174.5,116C 172.913,115.138 171.246,114.471 169.5,114C 160.173,113.5 150.839,113.334 141.5,113.5C 141.929,102.755 141.429,92.0885 140,81.5C 130.599,71.7747 122.099,72.4414 114.5,83.5C 92.5,61.8333 70.5,40.1667 48.5,18.5C 51.842,16.6652 55.5086,15.4985 59.5,15C 69.828,14.5002 80.1613,14.3335 90.5,14.5 Z"/></g>
<g><path style="opacity:1" fill="#fd8c2b" d="M 90.5,14.5 C 105.5,14.5 120.5,14.5 135.5,14.5C 170.5,50.1667 205.833,85.5 241.5,120.5C 241.5,135.5 241.5,150.5 241.5,165.5C 190.833,115.5 140.5,65.1667 90.5,14.5 Z"/></g>
<g><path style="opacity:0.997" fill="#fd922c" d="M 135.5,14.5 C 150.833,14.5 166.167,14.5 181.5,14.5C 200.798,34.2986 220.298,53.9653 240,73.5C 240.21,71.9419 240.71,70.6085 241.5,69.5C 241.5,86.5 241.5,103.5 241.5,120.5C 205.833,85.5 170.5,50.1667 135.5,14.5 Z"/></g>
<g><path style="opacity:0.972" fill="#fe972d" d="M 181.5,14.5 C 208.204,13.5963 227.038,25.2629 238,49.5C 240.263,55.9813 241.43,62.648 241.5,69.5C 240.71,70.6085 240.21,71.9419 240,73.5C 220.298,53.9653 200.798,34.2986 181.5,14.5 Z"/></g>
<g><path style="opacity:0.995" fill="#fea52f" d="M 324.5,14.5 C 357.167,47.5 389.833,80.5 422.5,113.5C 407.5,113.5 392.5,113.5 377.5,113.5C 349.202,84.7013 320.702,56.0347 292,27.5C 291.536,26.9056 291.369,26.2389 291.5,25.5C 300.995,17.7006 311.995,14.0339 324.5,14.5 Z"/></g>
<g><path style="opacity:0.999" fill="#ffab30" d="M 324.5,14.5 C 339.833,14.5 355.167,14.5 370.5,14.5C 412.132,56.6321 453.965,98.6321 496,140.5C 496.5,130.839 496.666,121.172 496.5,111.5C 496.833,111.5 497.167,111.5 497.5,111.5C 497.831,136.672 497.498,161.672 496.5,186.5C 476.14,166.806 456.14,146.806 436.5,126.5C 435.045,118.711 430.378,114.378 422.5,113.5C 389.833,80.5 357.167,47.5 324.5,14.5 Z"/></g>
<g><path style="opacity:1" fill="#ffb130" d="M 370.5,14.5 C 388.167,14.5 405.833,14.5 423.5,14.5C 447.465,38.9653 471.632,63.2986 496,87.5C 496.5,95.4931 496.666,103.493 496.5,111.5C 496.666,121.172 496.5,130.839 496,140.5C 453.965,98.6321 412.132,56.6321 370.5,14.5 Z"/></g>
<g><path style="opacity:0.982" fill="#ffb831" d="M 423.5,14.5 C 447.789,10.0973 468.289,16.7639 485,34.5C 490.282,41.7322 493.949,49.7322 496,58.5C 497.325,76.1389 497.825,93.8056 497.5,111.5C 497.167,111.5 496.833,111.5 496.5,111.5C 496.666,103.493 496.5,95.4931 496,87.5C 471.632,63.2986 447.465,38.9653 423.5,14.5 Z"/></g>
<g><path style="opacity:0.993" fill="#fd802a" d="M 48.5,18.5 C 70.5,40.1667 92.5,61.8333 114.5,83.5C 113.576,93.4607 113.242,103.461 113.5,113.5C 105.833,113.5 98.1667,113.5 90.5,113.5C 67.7832,89.7826 44.4499,66.7826 20.5,44.5C 26.2886,32.0457 35.6219,23.3791 48.5,18.5 Z"/></g>
<g><path style="opacity:0.993" fill="#fe9f2e" d="M 291.5,25.5 C 291.369,26.2389 291.536,26.9056 292,27.5C 320.702,56.0347 349.202,84.7013 377.5,113.5C 365.495,113.333 353.495,113.5 341.5,114C 339.846,114.608 338.179,115.108 336.5,115.5C 315.085,95.5866 294.085,75.0866 273.5,54C 272.906,53.5357 272.239,53.369 271.5,53.5C 275.249,41.9731 281.915,32.6398 291.5,25.5 Z"/></g>
<g><path style="opacity:0.988" fill="#fd7929" d="M 20.5,44.5 C 44.4499,66.7826 67.7832,89.7826 90.5,113.5C 76.549,115.072 72.049,122.405 77,135.5C 78.9605,138.135 81.4605,139.969 84.5,141C 94.1609,141.5 103.828,141.666 113.5,141.5C 113.334,150.839 113.5,160.173 114,169.5C 119.839,182.453 128.172,184.453 139,175.5C 140.908,172.794 141.741,169.794 141.5,166.5C 142.117,166.389 142.617,166.056 143,165.5C 166.419,188.418 189.253,211.751 211.5,235.5C 201.732,240.185 191.399,242.185 180.5,241.5C 177.695,240.681 174.695,240.181 171.5,240C 118.911,187.578 66.5778,135.078 14.5,82.5C 14.5,78.1667 14.5,73.8333 14.5,69.5C 13.8538,60.4216 15.8538,52.0883 20.5,44.5 Z"/></g>
<g><path style="opacity:0.994" fill="#fe992d" d="M 271.5,53.5 C 272.239,53.369 272.906,53.5357 273.5,54C 294.085,75.0866 315.085,95.5866 336.5,115.5C 327.906,123.068 327.572,130.901 335.5,139C 338.206,140.908 341.206,141.741 344.5,141.5C 350.319,142.328 356.319,142.828 362.5,143C 394.752,174.751 426.418,206.917 457.5,239.5C 440.919,241.372 424.252,242.038 407.5,241.5C 362.201,195.701 316.701,150.035 271,104.5C 270.817,101.635 270.317,98.9686 269.5,96.5C 268.988,82.0778 269.654,67.7445 271.5,53.5 Z"/></g>
<g><path style="opacity:0.997" fill="#fd7328" d="M 14.5,82.5 C 66.5778,135.078 118.911,187.578 171.5,240C 174.695,240.181 177.695,240.681 180.5,241.5C 162.833,241.5 145.167,241.5 127.5,241.5C 90.1667,203.5 52.5,165.833 14.5,128.5C 14.5,113.167 14.5,97.8333 14.5,82.5 Z"/></g>
<g><path style="opacity:0.995" fill="#fd922c" d="M 269.5,96.5 C 270.317,98.9686 270.817,101.635 271,104.5C 316.701,150.035 362.201,195.701 407.5,241.5C 394.833,241.5 382.167,241.5 369.5,241.5C 366.695,240.681 363.695,240.181 360.5,240C 330.299,209.632 299.965,179.465 269.5,149.5C 269.5,131.833 269.5,114.167 269.5,96.5 Z"/></g>
<g><path style="opacity:0.995" fill="#fd6d27" d="M 14.5,128.5 C 52.5,165.833 90.1667,203.5 127.5,241.5C 109.833,241.5 92.1667,241.5 74.5,241.5C 76.631,240.686 78.9644,240.186 81.5,240C 59.3333,217.833 37.1667,195.667 15,173.5C 14.5001,158.504 14.3334,143.504 14.5,128.5 Z"/></g>
<g><path style="opacity:0.986" fill="#fea52f" d="M 436.5,126.5 C 456.14,146.806 476.14,166.806 496.5,186.5C 496.963,199.542 492.963,210.875 484.5,220.5C 459.035,194.535 433.368,168.701 407.5,143C 404.305,142.819 401.305,142.319 398.5,141.5C 408.912,141.926 419.246,141.426 429.5,140C 434.096,136.64 436.429,132.14 436.5,126.5 Z"/></g>
<g><path style="opacity:0.991" fill="#fd7f2a" d="M 171.5,141.5 C 193.5,163.167 215.5,184.833 237.5,206.5C 232.361,219.307 223.694,228.974 211.5,235.5C 189.253,211.751 166.419,188.418 143,165.5C 142.617,166.056 142.117,166.389 141.5,166.5C 141.5,158.167 141.5,149.833 141.5,141.5C 151.5,141.5 161.5,141.5 171.5,141.5 Z"/></g>
<g><path style="opacity:0.986" fill="#fe9f2e" d="M 344.5,141.5 C 362.5,141.5 380.5,141.5 398.5,141.5C 401.305,142.319 404.305,142.819 407.5,143C 433.368,168.701 459.035,194.535 484.5,220.5C 477.508,229.512 468.508,235.846 457.5,239.5C 426.418,206.917 394.752,174.751 362.5,143C 356.319,142.828 350.319,142.328 344.5,141.5 Z"/></g>
<g><path style="opacity:1" fill="#fe8c2b" d="M 269.5,149.5 C 299.965,179.465 330.299,209.632 360.5,240C 363.695,240.181 366.695,240.681 369.5,241.5C 352.163,241.667 334.83,241.5 317.5,241C 293.523,236.691 278.023,222.858 271,199.5C 269.592,182.876 269.092,166.209 269.5,149.5 Z"/></g>
<g><path style="opacity:0.98" fill="#fd6827" d="M 14.5,69.5 C 14.5,73.8333 14.5,78.1667 14.5,82.5C 14.5,97.8333 14.5,113.167 14.5,128.5C 14.3334,143.504 14.5001,158.504 15,173.5C 37.1667,195.667 59.3333,217.833 81.5,240C 78.9644,240.186 76.631,240.686 74.5,241.5C 38.1076,240.904 17.9409,222.57 14,186.5C 13.1688,147.331 13.3355,108.331 14.5,69.5 Z"/></g>
<g><path style="opacity:0.993" fill="#fd6626" d="M 103.5,269.5 C 106.305,270.319 109.305,270.819 112.5,271C 155.368,314.035 198.368,356.868 241.5,399.5C 241.667,416.17 241.5,432.837 241,449.5C 240.802,451.382 240.302,453.048 239.5,454.5C 239.657,453.127 239.49,451.793 239,450.5C 212.248,424.249 186.081,397.582 160.5,370.5C 163.883,367.28 166.716,363.614 169,359.5C 170.402,349.069 165.902,343.069 155.5,341.5C 152.567,341.466 149.9,342.299 147.5,344C 145.297,346.372 142.963,348.539 140.5,350.5C 112.883,324.55 85.8832,297.884 59.5,270.5C 74.1183,269.533 88.785,269.2 103.5,269.5 Z"/></g>
<g><path style="opacity:0.992" fill="#fd6d27" d="M 103.5,269.5 C 121.167,269.5 138.833,269.5 156.5,269.5C 184.132,297.632 211.965,325.632 240,353.5C 240.183,356.365 240.683,359.031 241.5,361.5C 241.5,374.167 241.5,386.833 241.5,399.5C 198.368,356.868 155.368,314.035 112.5,271C 109.305,270.819 106.305,270.319 103.5,269.5 Z"/></g>
<g><path style="opacity:0.985" fill="#fd7328" d="M 156.5,269.5 C 170.878,269.109 185.211,269.609 199.5,271C 222.858,278.023 236.691,293.523 241,317.5C 241.5,332.163 241.667,346.83 241.5,361.5C 240.683,359.031 240.183,356.365 240,353.5C 211.965,325.632 184.132,297.632 156.5,269.5 Z"/></g>
<g><path style="opacity:0.988" fill="#fe862b" d="M 345.5,269.5 C 369.298,293.799 393.298,317.965 417.5,342C 419.708,342.191 421.708,342.691 423.5,343.5C 406.833,343.5 390.167,343.5 373.5,343.5C 350.473,319.806 327.14,296.473 303.5,273.5C 308.023,271.827 312.69,270.66 317.5,270C 326.827,269.5 336.161,269.334 345.5,269.5 Z"/></g>
<g><path style="opacity:0.997" fill="#fd922c" d="M 398.5,269.5 C 411.167,269.5 423.833,269.5 436.5,269.5C 456.132,289.632 475.965,309.632 496,329.5C 496.5,344.83 496.667,360.163 496.5,375.5C 461.368,340.868 426.368,306.035 391.5,271C 394.036,270.814 396.369,270.314 398.5,269.5 Z"/></g>
<g><path style="opacity:0.971" fill="#fe972d" d="M 436.5,269.5 C 472.892,270.096 493.059,288.43 497,324.5C 497.831,363.669 497.665,402.669 496.5,441.5C 496.5,434.5 496.5,427.5 496.5,420.5C 496.5,405.5 496.5,390.5 496.5,375.5C 496.667,360.163 496.5,344.83 496,329.5C 475.965,309.632 456.132,289.632 436.5,269.5 Z"/></g>
<g><path style="opacity:0.989" fill="#fd6025" d="M 59.5,270.5 C 85.8832,297.884 112.883,324.55 140.5,350.5C 136.537,354.964 132.37,359.298 128,363.5C 121.136,356.302 113.97,349.468 106.5,343C 99.7285,340.418 93.7285,341.585 88.5,346.5C 70.0869,326.585 51.0869,307.085 31.5,288C 30.552,287.517 29.552,287.351 28.5,287.5C 36.8874,278.469 47.2207,272.803 59.5,270.5 Z"/></g>
<g><path style="opacity:0.999" fill="#fd8c2b" d="M 345.5,269.5 C 363.167,269.5 380.833,269.5 398.5,269.5C 396.369,270.314 394.036,270.814 391.5,271C 426.368,306.035 461.368,340.868 496.5,375.5C 496.5,390.5 496.5,405.5 496.5,420.5C 475.751,400.752 455.751,380.419 436.5,359.5C 436.58,350.58 432.247,345.247 423.5,343.5C 421.708,342.691 419.708,342.191 417.5,342C 393.298,317.965 369.298,293.799 345.5,269.5 Z"/></g>
<g><path style="opacity:0.989" fill="#fd802a" d="M 303.5,273.5 C 327.14,296.473 350.473,319.806 373.5,343.5C 362.495,343.333 351.495,343.5 340.5,344C 335.745,345.261 332.412,348.095 330.5,352.5C 312.701,335.202 295.035,317.702 277.5,300C 276.906,299.536 276.239,299.369 275.5,299.5C 281.943,287.724 291.276,279.057 303.5,273.5 Z"/></g>
<g><path style="opacity:0.994" fill="#fc5a25" d="M 28.5,287.5 C 29.552,287.351 30.552,287.517 31.5,288C 51.0869,307.085 70.0869,326.585 88.5,346.5C 85.3004,351.827 85.1337,357.161 88,362.5C 94.3163,369.65 100.816,376.65 107.5,383.5C 103.479,388.188 99.1456,392.521 94.5,396.5C 67.473,370.14 40.8063,343.473 14.5,316.5C 16.2421,305.351 20.9088,295.684 28.5,287.5 Z"/></g>
<g><path style="opacity:0.99" fill="#fd7929" d="M 275.5,299.5 C 276.239,299.369 276.906,299.536 277.5,300C 295.035,317.702 312.701,335.202 330.5,352.5C 328.633,363.104 332.966,369.438 343.5,371.5C 345.631,372.314 347.964,372.814 350.5,373C 357.703,380.035 364.703,387.202 371.5,394.5C 361.828,394.334 352.161,394.5 342.5,395C 338.41,395.543 335.076,397.377 332.5,400.5C 311.527,379.861 290.527,359.194 269.5,338.5C 268.092,324.901 270.092,311.901 275.5,299.5 Z"/></g>
<g><path style="opacity:0.995" fill="#fc5424" d="M 14.5,316.5 C 40.8063,343.473 67.473,370.14 94.5,396.5C 92.5389,398.963 90.3722,401.297 88,403.5C 83.5475,415.254 87.5475,422.588 100,425.5C 101.734,424.751 103.567,424.251 105.5,424C 110.002,420.33 114.335,416.497 118.5,412.5C 117.316,414.463 116.483,416.463 116,418.5C 142.035,444.368 167.868,470.368 193.5,496.5C 178.5,496.5 163.5,496.5 148.5,496.5C 104.201,451.701 59.7014,407.035 15,362.5C 14.5001,374.829 14.3335,387.162 14.5,399.5C 14.1667,399.5 13.8333,399.5 13.5,399.5C 13.238,371.818 13.5713,344.152 14.5,316.5 Z"/></g>
<g><path style="opacity:0.995" fill="#fd7328" d="M 269.5,338.5 C 290.527,359.194 311.527,379.861 332.5,400.5C 327.659,409.96 329.992,417.127 339.5,422C 344.767,423.191 350.101,423.691 355.5,423.5C 379.391,447.726 403.391,472.059 427.5,496.5C 412.5,496.5 397.5,496.5 382.5,496.5C 345.535,459.035 308.368,421.701 271,384.5C 270.809,386.708 270.309,388.708 269.5,390.5C 269.5,373.167 269.5,355.833 269.5,338.5 Z"/></g>
<g><path style="opacity:0.991" fill="#fe862a" d="M 436.5,359.5 C 455.751,380.419 475.751,400.752 496.5,420.5C 496.5,427.5 496.5,434.5 496.5,441.5C 497.192,449.006 495.859,456.006 492.5,462.5C 474.167,443.5 455.5,424.833 436.5,406.5C 434.691,399.689 430.358,395.689 423.5,394.5C 423.938,394.565 424.272,394.399 424.5,394C 416.964,386.632 409.631,379.132 402.5,371.5C 410.507,371.666 418.507,371.5 426.5,371C 431.816,368.853 435.149,365.02 436.5,359.5 Z"/></g>
<g><path style="opacity:1" fill="#fc4e23" d="M 148.5,496.5 C 130.833,496.5 113.167,496.5 95.5,496.5C 68.8682,469.368 42.0349,442.368 15,415.5C 14.5006,410.177 14.334,404.844 14.5,399.5C 14.3335,387.162 14.5001,374.829 15,362.5C 59.7014,407.035 104.201,451.701 148.5,496.5 Z"/></g>
<g><path style="opacity:0.991" fill="#fd6025" d="M 160.5,370.5 C 186.081,397.582 212.248,424.249 239,450.5C 239.49,451.793 239.657,453.127 239.5,454.5C 237.341,465.159 232.341,474.159 224.5,481.5C 205.116,461.115 185.116,441.449 164.5,422.5C 169.415,417.271 170.582,411.271 168,404.5C 161.532,397.03 154.698,389.864 147.5,383C 151.702,378.63 156.036,374.463 160.5,370.5 Z"/></g>
<g><path style="opacity:0.966" fill="#fd802a" d="M 343.5,371.5 C 363.167,371.5 382.833,371.5 402.5,371.5C 409.631,379.132 416.964,386.632 424.5,394C 424.272,394.399 423.938,394.565 423.5,394.5C 406.167,394.5 388.833,394.5 371.5,394.5C 364.703,387.202 357.703,380.035 350.5,373C 347.964,372.814 345.631,372.314 343.5,371.5 Z"/></g>
<g><path style="opacity:0.996" fill="#fd6d27" d="M 382.5,496.5 C 367.5,496.5 352.5,496.5 337.5,496.5C 315.167,473.5 292.5,450.833 269.5,428.5C 269.5,415.833 269.5,403.167 269.5,390.5C 270.309,388.708 270.809,386.708 271,384.5C 308.368,421.701 345.535,459.035 382.5,496.5 Z"/></g>
<g><path style="opacity:0.992" fill="#fc5a24" d="M 164.5,422.5 C 185.116,441.449 205.116,461.115 224.5,481.5C 215.95,489.94 205.617,494.94 193.5,496.5C 167.868,470.368 142.035,444.368 116,418.5C 116.483,416.463 117.316,414.463 118.5,412.5C 121.146,409.188 124.146,406.188 127.5,403.5C 134.35,410.184 141.35,416.684 148.5,423C 153.839,425.866 159.173,425.7 164.5,422.5 Z"/></g>
<g><path style="opacity:0.992" fill="#fd7f2a" d="M 436.5,406.5 C 455.5,424.833 474.167,443.5 492.5,462.5C 487.697,474.97 479.364,484.304 467.5,490.5C 445.5,468.167 423.5,445.833 401.5,423.5C 410.226,423.839 418.893,423.339 427.5,422C 434.07,418.925 437.07,413.758 436.5,406.5 Z"/></g>
<g><path style="opacity:0.994" fill="#fc4722" d="M 13.5,399.5 C 13.8333,399.5 14.1667,399.5 14.5,399.5C 14.334,404.844 14.5006,410.177 15,415.5C 42.0349,442.368 68.8682,469.368 95.5,496.5C 81.7821,496.906 68.1154,496.406 54.5,495C 33.3881,488.221 20.2215,474.055 15,452.5C 13.6752,434.861 13.1752,417.194 13.5,399.5 Z"/></g>
<g><path style="opacity:0.997" fill="#fd7929" d="M 355.5,423.5 C 370.833,423.5 386.167,423.5 401.5,423.5C 423.5,445.833 445.5,468.167 467.5,490.5C 462.505,493.221 457.171,495.054 451.5,496C 443.507,496.5 435.507,496.666 427.5,496.5C 403.391,472.059 379.391,447.726 355.5,423.5 Z"/></g>
<g><path style="opacity:0.978" fill="#fd6826" d="M 269.5,428.5 C 292.5,450.833 315.167,473.5 337.5,496.5C 305.849,500.282 284.016,487.616 272,458.5C 269.791,448.632 268.958,438.632 269.5,428.5 Z"/></g>
</svg>
