<?xml version="1.0" encoding="UTF-8"?>
<!DOCTYPE svg PUBLIC "-//W3C//DTD SVG 1.1//EN" "http://www.w3.org/Graphics/SVG/1.1/DTD/svg11.dtd">
<svg xmlns="http://www.w3.org/2000/svg" version="1.1" width="512px" height="512px" style="shape-rendering:geometricPrecision; text-rendering:geometricPrecision; image-rendering:optimizeQuality; fill-rule:evenodd; clip-rule:evenodd" xmlns:xlink="http://www.w3.org/1999/xlink">
<g><path style="opacity:0.99" fill="#010100" d="M 245.5,-0.5 C 252.167,-0.5 258.833,-0.5 265.5,-0.5C 273.146,1.55846 280.146,5.05846 286.5,10C 306,29.5 325.5,49 345,68.5C 345.333,49.1667 345.667,29.8333 346,10.5C 347.599,5.40601 350.766,1.73934 355.5,-0.5C 380.5,-0.5 405.5,-0.5 430.5,-0.5C 434.785,1.62186 437.952,4.9552 440,9.5C 440.333,61.1667 440.667,112.833 441,164.5C 461,184.5 481,204.5 501,224.5C 505.942,230.854 509.442,237.854 511.5,245.5C 511.5,252.167 511.5,258.833 511.5,265.5C 503.156,292.489 484.822,304.822 456.5,302.5C 456.667,357.168 456.5,411.834 456,466.5C 450.315,490.684 435.482,505.684 411.5,511.5C 373.833,511.5 336.167,511.5 298.5,511.5C 294.215,509.378 291.048,506.045 289,501.5C 288.5,462.168 288.333,422.835 288.5,383.5C 266.5,383.5 244.5,383.5 222.5,383.5C 222.667,422.835 222.5,462.168 222,501.5C 219.952,506.045 216.785,509.378 212.5,511.5C 174.833,511.5 137.167,511.5 99.5,511.5C 75.5183,505.684 60.6849,490.684 55,466.5C 54.5,411.834 54.3333,357.168 54.5,302.5C 26.2026,304.855 7.86922,292.522 -0.5,265.5C -0.5,258.833 -0.5,252.167 -0.5,245.5C 1.55846,237.854 5.05846,230.854 10,224.5C 81.5,153 153,81.5 224.5,10C 230.854,5.05846 237.854,1.55846 245.5,-0.5 Z"/></g>
<g><path style="opacity:1" fill="#c96c35" d="M 409.5,29.5 C 409.832,64.0041 409.498,98.3374 408.5,132.5C 397.868,122.369 387.368,112.035 377,101.5C 376.5,77.5023 376.333,53.5023 376.5,29.5C 387.5,29.5 398.5,29.5 409.5,29.5 Z"/></g>
<g><path style="opacity:1" fill="#aa5b2d" d="M 409.5,29.5 C 410.664,64.3309 410.831,99.3309 410,134.5C 409.283,133.956 408.783,133.289 408.5,132.5C 409.498,98.3374 409.832,64.0041 409.5,29.5 Z"/></g>
<g><path style="opacity:1" fill="#fc9d00" d="M 250.5,29.5 C 256.866,28.5302 262.533,30.0302 267.5,34C 337.333,103.833 407.167,173.667 477,243.5C 483.359,252.406 482.859,260.906 475.5,269C 468.636,273.122 461.636,273.455 454.5,270C 391.5,207 328.5,144 265.5,81C 258.736,76.4777 252.069,76.4777 245.5,81C 182.5,144 119.5,207 56.5,270C 41.4438,276.07 32.4438,271.236 29.5,255.5C 29.5066,251.481 30.6732,247.815 33,244.5C 103.5,174 174,103.5 244.5,33C 246.727,32.059 248.727,30.8923 250.5,29.5 Z"/></g>
<g><path style="opacity:1" fill="#e6efee" d="M 254.5,114.5 C 312.083,170.583 369.25,227.249 426,284.5C 426.667,343.5 426.667,402.5 426,461.5C 423.5,472 417,478.5 406.5,481C 377.169,481.5 347.835,481.667 318.5,481.5C 318.667,442.165 318.5,402.832 318,363.5C 316.141,358.974 312.974,355.808 308.5,354C 272.833,353.333 237.167,353.333 201.5,354C 197.612,356.222 194.779,359.388 193,363.5C 192.5,402.832 192.333,442.165 192.5,481.5C 162.831,481.667 133.165,481.5 103.5,481C 93.5664,478.067 87.3998,471.567 85,461.5C 84.3333,402.5 84.3333,343.5 85,284.5C 141.701,227.965 198.201,171.299 254.5,114.5 Z"/></g>
</svg>
