<?xml version="1.0" encoding="UTF-8"?>
<!DOCTYPE svg PUBLIC "-//W3C//DTD SVG 1.1//EN" "http://www.w3.org/Graphics/SVG/1.1/DTD/svg11.dtd">
<svg xmlns="http://www.w3.org/2000/svg" version="1.1" width="682px" height="620px" style="shape-rendering:geometricPrecision; text-rendering:geometricPrecision; image-rendering:optimizeQuality; fill-rule:evenodd; clip-rule:evenodd" xmlns:xlink="http://www.w3.org/1999/xlink">
<g><path style="opacity:1" fill="#3f3e3e" d="M 389.5,58.5 C 386.06,59.5113 382.726,60.5113 379.5,61.5C 336.907,55.9735 295.24,59.9735 254.5,73.5C 251.903,73.2792 251.903,72.7792 254.5,72C 253.833,71.6667 253.167,71.3333 252.5,71C 254.32,70.7996 255.653,69.9663 256.5,68.5C 300.077,53.7811 344.41,50.4478 389.5,58.5 Z"/></g>
<g><path style="opacity:1" fill="#3c3c3b" d="M 389.5,58.5 C 401.235,59.9353 412.568,62.6019 423.5,66.5C 423.918,67.2216 424.584,67.7216 425.5,68C 423.655,69.128 421.655,69.628 419.5,69.5C 417.901,69.7678 416.568,69.4345 415.5,68.5C 413.485,67.0762 411.152,66.4095 408.5,66.5C 398.854,64.704 389.187,63.0373 379.5,61.5C 382.726,60.5113 386.06,59.5113 389.5,58.5 Z"/></g>
<g><path style="opacity:1" fill="#81817f" d="M 408.5,66.5 C 411.152,66.4095 413.485,67.0762 415.5,68.5C 412.848,68.5905 410.515,67.9238 408.5,66.5 Z"/></g>
<g><path style="opacity:1" fill="#565454" d="M 423.5,66.5 C 426.785,66.9281 429.785,67.9281 432.5,69.5C 430.801,69.3398 429.134,69.5065 427.5,70C 428.71,71.0391 429.71,72.2058 430.5,73.5C 426.605,72.5376 422.939,71.2043 419.5,69.5C 421.655,69.628 423.655,69.128 425.5,68C 424.584,67.7216 423.918,67.2216 423.5,66.5 Z"/></g>
<g><path style="opacity:1" fill="#696968" d="M 361.5,69.5 C 376.604,69.9072 391.271,72.2405 405.5,76.5C 403.158,77.2107 402.825,78.544 404.5,80.5C 404.167,80.5 403.833,80.5 403.5,80.5C 402.501,144.665 402.168,208.998 402.5,273.5C 393.521,264.187 384.521,254.854 375.5,245.5C 366.479,254.854 357.479,264.187 348.5,273.5C 348.5,254.167 348.5,234.833 348.5,215.5C 357.248,200.334 366.248,185.334 375.5,170.5C 376.043,170.44 376.376,170.107 376.5,169.5C 367.19,168.502 357.857,168.168 348.5,168.5C 348.83,151.658 348.497,134.992 347.5,118.5C 347.5,112.5 347.5,106.5 347.5,100.5C 347.5,90.1667 347.5,79.8333 347.5,69.5C 352.167,69.5 356.833,69.5 361.5,69.5 Z"/></g>
<g><path style="opacity:1" fill="#323030" d="M 432.5,69.5 C 435.443,69.9802 438.11,70.9802 440.5,72.5C 440.209,73.6491 439.376,74.3158 438,74.5C 435.863,73.9233 433.696,73.59 431.5,73.5C 431.167,73.5 430.833,73.5 430.5,73.5C 429.71,72.2058 428.71,71.0391 427.5,70C 429.134,69.5065 430.801,69.3398 432.5,69.5 Z"/></g>
<g><path style="opacity:1" fill="#565555" d="M 440.5,72.5 C 442.553,72.4021 444.22,73.0687 445.5,74.5C 438.858,75.4923 438.858,76.4923 445.5,77.5C 445.863,78.1835 446.196,78.8501 446.5,79.5C 441.32,77.7358 436.32,75.7358 431.5,73.5C 433.696,73.59 435.863,73.9233 438,74.5C 439.376,74.3158 440.209,73.6491 440.5,72.5 Z"/></g>
<g><path style="opacity:1" fill="#2e2d2c" d="M 405.5,76.5 C 408.428,76.5651 411.095,77.2318 413.5,78.5C 415.204,80.5239 417.204,82.0239 419.5,83C 418.552,83.4828 417.552,83.6495 416.5,83.5C 414.485,82.0762 412.152,81.4095 409.5,81.5C 407.585,81.7845 405.919,81.4511 404.5,80.5C 402.825,78.544 403.158,77.2107 405.5,76.5 Z"/></g>
<g><path style="opacity:1" fill="#676664" d="M 409.5,81.5 C 412.152,81.4095 414.485,82.0762 416.5,83.5C 413.848,83.5905 411.515,82.9238 409.5,81.5 Z"/></g>
<g><path style="opacity:1" fill="#363534" d="M 445.5,74.5 C 451.23,76.0711 456.563,78.4044 461.5,81.5C 460.448,83.256 458.781,83.9227 456.5,83.5C 453.082,82.3611 449.749,81.0277 446.5,79.5C 446.196,78.8501 445.863,78.1835 445.5,77.5C 438.858,76.4923 438.858,75.4923 445.5,74.5 Z"/></g>
<g><path style="opacity:1" fill="#3b3a39" d="M 413.5,78.5 C 426.021,81.6712 438.021,86.0045 449.5,91.5C 450.028,92.7206 450.695,93.8873 451.5,95C 450.552,95.4828 449.552,95.6495 448.5,95.5C 437.766,91.4574 427.1,87.4574 416.5,83.5C 417.552,83.6495 418.552,83.4828 419.5,83C 417.204,82.0239 415.204,80.5239 413.5,78.5 Z"/></g>
<g><path style="opacity:1" fill="#848585" d="M 481.5,96.5 C 483.027,96.427 484.027,97.0937 484.5,98.5C 482.973,98.573 481.973,97.9063 481.5,96.5 Z"/></g>
<g><path style="opacity:1" fill="#c78858" d="M 361.5,69.5 C 356.833,69.5 352.167,69.5 347.5,69.5C 347.5,79.8333 347.5,90.1667 347.5,100.5C 269.99,101.338 207.824,132.338 161,193.5C 147.361,212.445 137.194,233.112 130.5,255.5C 117.503,264.673 104.837,274.339 92.5,284.5C 92.5,284.167 92.5,283.833 92.5,283.5C 106.049,203.183 147.716,142.35 217.5,101C 262.568,76.3558 310.568,65.8558 361.5,69.5 Z"/></g>
<g><path style="opacity:1" fill="#3b3b3b" d="M 256.5,68.5 C 255.653,69.9663 254.32,70.7996 252.5,71C 253.167,71.3333 253.833,71.6667 254.5,72C 251.903,72.7792 251.903,73.2792 254.5,73.5C 191.362,97.308 143.362,138.641 110.5,197.5C 110.657,196.127 110.49,194.793 110,193.5C 109.329,194.252 108.496,194.586 107.5,194.5C 110.08,188.332 113.414,182.665 117.5,177.5C 118.906,177.027 119.573,176.027 119.5,174.5C 152.866,123.49 198.533,88.1568 256.5,68.5 Z"/></g>
<g><path style="opacity:1" fill="#8a8c8a" d="M 492.5,103.5 C 494.027,103.427 495.027,104.094 495.5,105.5C 493.973,105.573 492.973,104.906 492.5,103.5 Z"/></g>
<g><path style="opacity:1" fill="#828581" d="M 495.5,105.5 C 497.027,105.427 498.027,106.094 498.5,107.5C 496.973,107.573 495.973,106.906 495.5,105.5 Z"/></g>
<g><path style="opacity:1" fill="#929292" d="M 478.5,111.5 C 480.027,111.427 481.027,112.094 481.5,113.5C 479.973,113.573 478.973,112.906 478.5,111.5 Z"/></g>
<g><path style="opacity:1" fill="#858484" d="M 403.5,80.5 C 403.5,145.5 403.5,210.5 403.5,275.5C 384.833,275.5 366.167,275.5 347.5,275.5C 347.17,255.326 347.503,235.326 348.5,215.5C 348.5,234.833 348.5,254.167 348.5,273.5C 366.5,274.833 384.5,274.833 402.5,273.5C 402.168,208.998 402.501,144.665 403.5,80.5 Z"/></g>
<g><path style="opacity:1" fill="#383837" d="M 461.5,81.5 C 510.259,104.263 548.593,138.596 576.5,184.5C 576.427,186.027 577.094,187.027 578.5,187.5C 580.083,189.663 581.416,191.996 582.5,194.5C 581.637,193.537 580.97,193.537 580.5,194.5C 581.052,196.003 581.052,197.669 580.5,199.5C 559.901,162.897 532.567,132.23 498.5,107.5C 498.027,106.094 497.027,105.427 495.5,105.5C 495.027,104.094 494.027,103.427 492.5,103.5C 489.489,102.331 486.822,100.664 484.5,98.5C 484.027,97.0937 483.027,96.427 481.5,96.5C 473.002,92.4181 464.668,88.0847 456.5,83.5C 458.781,83.9227 460.448,83.256 461.5,81.5 Z"/></g>
<g><path style="opacity:1" fill="#969595" d="M 347.5,118.5 C 348.497,134.992 348.83,151.658 348.5,168.5C 357.857,168.168 367.19,168.502 376.5,169.5C 376.376,170.107 376.043,170.44 375.5,170.5C 366.348,169.506 357.015,169.173 347.5,169.5C 347.5,152.5 347.5,135.5 347.5,118.5 Z"/></g>
<g><path style="opacity:1" fill="#d8a277" d="M 347.5,100.5 C 347.5,106.5 347.5,112.5 347.5,118.5C 269.72,119.96 210.553,153.627 170,219.5C 159.342,239.989 151.175,261.322 145.5,283.5C 144.833,283.5 144.5,283.833 144.5,284.5C 139.597,275.025 134.93,265.358 130.5,255.5C 137.194,233.112 147.361,212.445 161,193.5C 207.824,132.338 269.99,101.338 347.5,100.5 Z"/></g>
<g><path style="opacity:1" fill="#3b3b3a" d="M 449.5,91.5 C 486.529,107.681 518.029,131.347 544,162.5C 551.595,172.037 558.428,182.037 564.5,192.5C 564.427,194.027 565.094,195.027 566.5,195.5C 577.001,212.317 585.001,230.317 590.5,249.5C 590.5,250.5 590.5,251.5 590.5,252.5C 588.801,252.473 587.467,251.806 586.5,250.5C 576.532,220.558 561.865,193.225 542.5,168.5C 542.068,167.29 541.401,166.29 540.5,165.5C 531.063,155.562 521.396,145.728 511.5,136C 501.882,127.867 491.882,120.367 481.5,113.5C 481.027,112.094 480.027,111.427 478.5,111.5C 468.492,106.163 458.492,100.83 448.5,95.5C 449.552,95.6495 450.552,95.4828 451.5,95C 450.695,93.8873 450.028,92.7206 449.5,91.5 Z"/></g>
<g><path style="opacity:1" fill="#848484" d="M 540.5,165.5 C 541.401,166.29 542.068,167.29 542.5,168.5C 540.926,169.984 539.593,171.651 538.5,173.5C 538.768,171.901 538.434,170.568 537.5,169.5C 519.577,168.514 501.577,168.181 483.5,168.5C 499.995,167.668 516.662,167.168 533.5,167C 536.036,166.814 538.369,166.314 540.5,165.5 Z"/></g>
<g><path style="opacity:1" fill="#8a8989" d="M 363.5,177.5 C 343.674,176.503 323.674,176.17 303.5,176.5C 321.353,175.808 339.353,175.141 357.5,174.5C 360.145,175.108 362.812,175.608 365.5,176C 364.956,176.717 364.289,177.217 363.5,177.5 Z"/></g>
<g><path style="opacity:1" fill="#767676" d="M 119.5,174.5 C 119.573,176.027 118.906,177.027 117.5,177.5C 117.427,175.973 118.094,174.973 119.5,174.5 Z"/></g>
<g><path style="opacity:1" fill="#848684" d="M 576.5,184.5 C 577.906,184.973 578.573,185.973 578.5,187.5C 577.094,187.027 576.427,186.027 576.5,184.5 Z"/></g>
<g><path style="opacity:1" fill="#6a6a6a" d="M 483.5,168.5 C 501.577,168.181 519.577,168.514 537.5,169.5C 524.896,177.81 511.896,185.644 498.5,193C 497.333,194.167 496.167,195.333 495,196.5C 480.212,222.58 465.045,248.413 449.5,274C 459.161,274.5 468.828,274.666 478.5,274.5C 460.005,275.662 441.338,275.829 422.5,275C 442.719,239.391 463.052,203.891 483.5,168.5 Z"/></g>
<g><path style="opacity:1" fill="#8e8f8c" d="M 564.5,192.5 C 565.906,192.973 566.573,193.973 566.5,195.5C 565.094,195.027 564.427,194.027 564.5,192.5 Z"/></g>
<g><path style="opacity:1" fill="#6b6b6a" d="M 212.5,176.5 C 215.833,176.5 219.167,176.5 222.5,176.5C 222.333,222.501 222.5,268.501 223,314.5C 223.717,313.956 224.217,313.289 224.5,312.5C 250.833,267.167 277.167,221.833 303.5,176.5C 323.674,176.17 343.674,176.503 363.5,177.5C 362.921,180.331 361.588,182.664 359.5,184.5C 359.227,182.549 359.893,181.049 361.5,180C 360.975,179.308 360.308,178.808 359.5,178.5C 344.917,187.041 330.417,195.707 316,204.5C 292.231,245.041 268.731,285.707 245.5,326.5C 268.399,365.96 291.566,405.294 315,444.5C 316.873,446.709 319.04,448.542 321.5,450C 335.377,457.188 348.877,465.022 362,473.5C 362.464,472.906 362.631,472.239 362.5,471.5C 363.167,471.5 363.5,471.833 363.5,472.5C 344.195,474.488 324.528,475.154 304.5,474.5C 282.774,438.729 261.274,402.729 240,366.5C 234.226,375.062 228.726,383.729 223.5,392.5C 222.833,418.833 222.167,445.167 221.5,471.5C 211.5,463.5 202.5,454.5 194.5,444.5C 195.833,403.339 196.5,361.839 196.5,320C 196.5,278.332 196.167,236.832 195.5,195.5C 200.083,188.247 205.75,181.914 212.5,176.5 Z"/></g>
<g><path style="opacity:1" fill="#373737" d="M 110.5,197.5 C 108.674,202.484 106.341,207.151 103.5,211.5C 101.544,213.175 100.211,212.842 99.5,210.5C 101.229,204.614 103.895,199.281 107.5,194.5C 108.496,194.586 109.329,194.252 110,193.5C 110.49,194.793 110.657,196.127 110.5,197.5 Z"/></g>
<g><path style="opacity:1" fill="#4c4b4b" d="M 537.5,169.5 C 538.434,170.568 538.768,171.901 538.5,173.5C 518.737,207.367 498.737,241.034 478.5,274.5C 468.828,274.666 459.161,274.5 449.5,274C 465.045,248.413 480.212,222.58 495,196.5C 496.167,195.333 497.333,194.167 498.5,193C 511.896,185.644 524.896,177.81 537.5,169.5 Z"/></g>
<g><path style="opacity:1" fill="#3b3938" d="M 582.5,194.5 C 592.347,210.691 599.681,228.024 604.5,246.5C 603.262,248.214 602.595,250.214 602.5,252.5C 596.569,234.299 589.236,216.632 580.5,199.5C 581.052,197.669 581.052,196.003 580.5,194.5C 580.97,193.537 581.637,193.537 582.5,194.5 Z"/></g>
<g><path style="opacity:1" fill="#4c4c4b" d="M 359.5,184.5 C 331.523,231.778 303.523,279.111 275.5,326.5C 304.774,374.723 333.774,423.056 362.5,471.5C 362.631,472.239 362.464,472.906 362,473.5C 348.877,465.022 335.377,457.188 321.5,450C 319.04,448.542 316.873,446.709 315,444.5C 291.566,405.294 268.399,365.96 245.5,326.5C 268.731,285.707 292.231,245.041 316,204.5C 330.417,195.707 344.917,187.041 359.5,178.5C 360.308,178.808 360.975,179.308 361.5,180C 359.893,181.049 359.227,182.549 359.5,184.5 Z"/></g>
<g><path style="opacity:1" fill="#404040" d="M 99.5,210.5 C 100.211,212.842 101.544,213.175 103.5,211.5C 100.48,218.909 97.4801,226.243 94.5,233.5C 94.5875,230.402 94.0875,230.068 93,232.5C 92.6667,231.833 92.3333,231.167 92,230.5C 91.7996,232.32 90.9663,233.653 89.5,234.5C 91.877,226.018 95.2103,218.018 99.5,210.5 Z"/></g>
<g><path style="opacity:1" fill="#2a2a29" d="M 94.5,233.5 C 94.405,235.786 93.7384,237.786 92.5,239.5C 91.7627,241.382 90.5961,242.048 89,241.5C 89.1349,239.575 89.3016,237.575 89.5,235.5C 89.5,235.167 89.5,234.833 89.5,234.5C 90.9663,233.653 91.7996,232.32 92,230.5C 92.3333,231.167 92.6667,231.833 93,232.5C 94.0875,230.068 94.5875,230.402 94.5,233.5 Z"/></g>
<g><path style="opacity:1" fill="#cfcfce" d="M 212.5,176.5 C 215.962,175.518 219.629,175.185 223.5,175.5C 223.168,221.336 223.501,267.003 224.5,312.5C 224.217,313.289 223.717,313.956 223,314.5C 222.5,268.501 222.333,222.501 222.5,176.5C 219.167,176.5 215.833,176.5 212.5,176.5 Z"/></g>
<g><path style="opacity:1" fill="#494948" d="M 89.5,235.5 C 89.3016,237.575 89.1349,239.575 89,241.5C 90.5961,242.048 91.7627,241.382 92.5,239.5C 91.0006,245.32 89.3339,250.987 87.5,256.5C 87.5432,252.107 87.0432,251.774 86,255.5C 85.6667,254.833 85.3333,254.167 85,253.5C 84.4338,255.723 83.6005,257.723 82.5,259.5C 83.9206,251.136 86.2539,243.136 89.5,235.5 Z"/></g>
<g><path style="opacity:1" fill="#676664" d="M 604.5,246.5 C 605.924,248.515 606.59,250.848 606.5,253.5C 605.076,251.485 604.41,249.152 604.5,246.5 Z"/></g>
<g><path style="opacity:1" fill="#5f5f5d" d="M 590.5,249.5 C 591.434,250.568 591.768,251.901 591.5,253.5C 590.5,253.5 589.5,253.5 588.5,253.5C 588.5,254.5 588.5,255.5 588.5,256.5C 587.262,254.786 586.595,252.786 586.5,250.5C 587.467,251.806 588.801,252.473 590.5,252.5C 590.5,251.5 590.5,250.5 590.5,249.5 Z"/></g>
<g><path style="opacity:1" fill="#393939" d="M 402.5,273.5 C 384.5,274.833 366.5,274.833 348.5,273.5C 357.479,264.187 366.479,254.854 375.5,245.5C 384.521,254.854 393.521,264.187 402.5,273.5 Z"/></g>
<g><path style="opacity:1" fill="#5f5d5c" d="M 602.5,253.5 C 603.309,254.469 604.309,255.302 605.5,256C 604.62,257.356 604.286,258.856 604.5,260.5C 603.388,258.401 602.721,256.067 602.5,253.5 Z"/></g>
<g><path style="opacity:1" fill="#1e1d1b" d="M 591.5,253.5 C 591.357,255.262 591.691,256.929 592.5,258.5C 592,258.833 591.5,259.167 591,259.5C 589.989,258.944 589.156,258.278 588.5,257.5C 588.5,257.167 588.5,256.833 588.5,256.5C 588.5,255.5 588.5,254.5 588.5,253.5C 589.5,253.5 590.5,253.5 591.5,253.5 Z"/></g>
<g><path style="opacity:1" fill="#616160" d="M 591.5,253.5 C 592.924,255.515 593.59,257.848 593.5,260.5C 592.5,260.5 591.5,260.5 590.5,260.5C 590.5,261.833 590.5,263.167 590.5,264.5C 589.388,262.401 588.721,260.067 588.5,257.5C 589.156,258.278 589.989,258.944 591,259.5C 591.5,259.167 592,258.833 592.5,258.5C 591.691,256.929 591.357,255.262 591.5,253.5 Z"/></g>
<g><path style="opacity:1" fill="#72716f" d="M 606.5,253.5 C 607.924,255.515 608.59,257.848 608.5,260.5C 607.076,258.485 606.41,256.152 606.5,253.5 Z"/></g>
<g><path style="opacity:1" fill="#3b3a3a" d="M 87.5,256.5 C 85.1435,268.117 82.9769,279.783 81,291.5C 79.6439,292.38 78.1439,292.714 76.5,292.5C 74.9519,292.179 74.2852,291.179 74.5,289.5C 75.8221,289.67 76.9887,289.337 78,288.5C 78.4974,285.854 78.6641,283.187 78.5,280.5C 78.8811,273.196 80.2144,266.196 82.5,259.5C 83.6005,257.723 84.4338,255.723 85,253.5C 85.3333,254.167 85.6667,254.833 86,255.5C 87.0432,251.774 87.5432,252.107 87.5,256.5 Z"/></g>
<g><path style="opacity:1" fill="#242322" d="M 593.5,260.5 C 594.434,261.568 594.768,262.901 594.5,264.5C 594.724,269.145 593.39,269.478 590.5,265.5C 590.5,265.167 590.5,264.833 590.5,264.5C 590.5,263.167 590.5,261.833 590.5,260.5C 591.5,260.5 592.5,260.5 593.5,260.5 Z"/></g>
<g><path style="opacity:1" fill="#555453" d="M 594.5,264.5 C 595.768,266.905 596.435,269.572 596.5,272.5C 595.732,271.737 595.232,270.737 595,269.5C 594.333,272.167 593.667,272.167 593,269.5C 592.51,270.793 592.343,272.127 592.5,273.5C 591.469,271.039 590.802,268.373 590.5,265.5C 593.39,269.478 594.724,269.145 594.5,264.5 Z"/></g>
<g><path style="opacity:1" fill="#373635" d="M 604.5,246.5 C 604.41,249.152 605.076,251.485 606.5,253.5C 606.41,256.152 607.076,258.485 608.5,260.5C 611.299,269.169 612.966,278.169 613.5,287.5C 613.574,289.411 614.574,290.578 616.5,291C 613.519,291.838 611.186,291.005 609.5,288.5C 607.835,279.172 606.168,269.839 604.5,260.5C 604.286,258.856 604.62,257.356 605.5,256C 604.309,255.302 603.309,254.469 602.5,253.5C 602.5,253.167 602.5,252.833 602.5,252.5C 602.595,250.214 603.262,248.214 604.5,246.5 Z"/></g>
<g><path style="opacity:1" fill="#2f2e2d" d="M 596.5,272.5 C 597.903,275.909 598.57,279.575 598.5,283.5C 598.5,284.833 598.5,286.167 598.5,287.5C 597.5,287.5 596.5,287.5 595.5,287.5C 595.279,284.933 594.612,282.599 593.5,280.5C 592.781,278.236 592.448,275.903 592.5,273.5C 592.343,272.127 592.51,270.793 593,269.5C 593.667,272.167 594.333,272.167 595,269.5C 595.232,270.737 595.732,271.737 596.5,272.5 Z"/></g>
<g><path style="opacity:1" fill="#a96b3e" d="M 130.5,255.5 C 134.93,265.358 139.597,275.025 144.5,284.5C 127.167,285.833 109.833,285.833 92.5,284.5C 104.837,274.339 117.503,264.673 130.5,255.5 Z"/></g>
<g><path style="opacity:1" fill="#e3d1c1" d="M 92.5,283.5 C 92.5,283.833 92.5,284.167 92.5,284.5C 109.833,285.833 127.167,285.833 144.5,284.5C 144.5,283.833 144.833,283.5 145.5,283.5C 145.5,284.5 145.5,285.5 145.5,286.5C 127.5,286.5 109.5,286.5 91.5,286.5C 91.2627,285.209 91.596,284.209 92.5,283.5 Z"/></g>
<g><path style="opacity:1" fill="#8a8988" d="M 593.5,280.5 C 594.612,282.599 595.279,284.933 595.5,287.5C 596.5,287.5 597.5,287.5 598.5,287.5C 598.5,286.167 598.5,284.833 598.5,283.5C 600.594,288.189 599.261,289.856 594.5,288.5C 593.908,285.873 593.575,283.206 593.5,280.5 Z"/></g>
<g><path style="opacity:1" fill="#616161" d="M 78.5,280.5 C 78.6641,283.187 78.4974,285.854 78,288.5C 76.9887,289.337 75.8221,289.67 74.5,289.5C 74.2852,291.179 74.9519,292.179 76.5,292.5C 75.4863,293.674 74.153,294.34 72.5,294.5C 74.1751,292.544 73.8418,291.211 71.5,290.5C 73.1086,289.229 74.9419,288.229 77,287.5C 77.1862,284.964 77.6862,282.631 78.5,280.5 Z"/></g>
<g><path style="opacity:1" fill="#404040" d="M 613.5,287.5 C 625.757,291.762 634.424,299.762 639.5,311.5C 637.544,309.825 636.211,310.158 635.5,312.5C 630.678,301.522 622.345,294.689 610.5,292C 609.663,290.989 609.33,289.822 609.5,288.5C 611.186,291.005 613.519,291.838 616.5,291C 614.574,290.578 613.574,289.411 613.5,287.5 Z"/></g>
<g><path style="opacity:1" fill="#efd0ab" d="M 304.5,290.5 C 368.159,292.331 432.159,293.164 496.5,293C 501.135,294.856 502.802,298.356 501.5,303.5C 434.528,302.344 367.528,302.177 300.5,303C 299.096,305.324 297.096,306.824 294.5,307.5C 297.585,301.661 300.918,295.994 304.5,290.5 Z"/></g>
<g><path style="opacity:1" fill="#e6c195" d="M 505.5,360.5 C 505.5,358.167 505.5,355.833 505.5,353.5C 505.5,350.5 505.5,347.5 505.5,344.5C 505.666,336.826 505.5,329.159 505,321.5C 503.053,322.11 501.219,322.943 499.5,324C 428.167,324.5 356.834,324.667 285.5,324.5C 285.38,327.205 286.38,327.872 288.5,326.5C 289.287,327.242 289.953,328.075 290.5,329C 290.353,330.974 290.019,332.974 289.5,335C 291.886,335.284 292.552,336.284 291.5,338C 293.107,339.049 293.773,340.549 293.5,342.5C 289.558,337.463 286.224,331.963 283.5,326C 286.557,319.373 290.223,313.206 294.5,307.5C 297.096,306.824 299.096,305.324 300.5,303C 367.528,302.177 434.528,302.344 501.5,303.5C 502.802,298.356 501.135,294.856 496.5,293C 432.159,293.164 368.159,292.331 304.5,290.5C 305.765,287.475 307.432,284.642 309.5,282C 373.224,281.011 436.891,281.344 500.5,283C 503.381,284.251 505.214,286.417 506,289.5C 506.83,313.337 506.663,337.004 505.5,360.5 Z"/></g>
<g><path style="opacity:1" fill="#a8856a" d="M 519.5,304.5 C 516.833,304.833 514.167,305.167 511.5,305.5C 514.04,303.587 516.707,303.254 519.5,304.5 Z"/></g>
<g><path style="opacity:1" fill="#555453" d="M 55.5,304.5 C 55.7593,306.989 54.7593,308.656 52.5,309.5C 52.7497,307.326 53.7497,305.659 55.5,304.5 Z"/></g>
<g><path style="opacity:1" fill="#7b4a1c" d="M 614.5,343.5 C 614.48,341.857 615.147,340.524 616.5,339.5C 615.496,337.323 616.162,336.989 618.5,338.5C 619.794,336.038 621.294,333.705 623,331.5C 623.667,330.5 623.667,329.5 623,328.5C 612.728,333.984 601.728,336.651 590,336.5C 573.243,333.568 556.41,331.235 539.5,329.5C 536.167,329.667 532.833,329.833 529.5,330C 525.107,332.544 520.44,333.877 515.5,334C 513.631,325.089 512.465,315.922 512,306.5C 511.5,318.829 511.333,331.162 511.5,343.5C 510.167,330.833 510.167,318.167 511.5,305.5C 514.167,305.167 516.833,304.833 519.5,304.5C 522.268,306.087 524.935,307.92 527.5,310C 531.72,311.411 536.053,312.244 540.5,312.5C 548.318,311.908 555.984,310.574 563.5,308.5C 566.152,308.59 568.485,307.924 570.5,306.5C 583.811,301.452 597.478,300.618 611.5,304C 626.426,310.687 630.593,321.52 624,336.5C 621.499,339.848 618.332,342.182 614.5,343.5 Z"/></g>
<g><path style="opacity:1" fill="#aa7646" d="M 588.5,308.5 C 598.546,308.054 608.046,310.054 617,314.5C 617.49,315.793 617.657,317.127 617.5,318.5C 609.056,315.871 600.39,314.537 591.5,314.5C 576.07,315.486 560.736,317.319 545.5,320C 540.833,320.667 536.167,320.667 531.5,320C 526.387,318.277 521.387,316.277 516.5,314C 515.663,312.989 515.33,311.822 515.5,310.5C 520.406,311.443 525.073,313.276 529.5,316C 536.833,316.667 544.167,316.667 551.5,316C 563.89,313.051 576.224,310.551 588.5,308.5 Z"/></g>
<g><path style="opacity:1" fill="#a98464" d="M 570.5,306.5 C 568.485,307.924 566.152,308.59 563.5,308.5C 565.515,307.076 567.848,306.41 570.5,306.5 Z"/></g>
<g><path style="opacity:1" fill="#7b4919" d="M 159.5,312.5 C 160.5,312.5 161.5,312.5 162.5,312.5C 162.5,313.5 162.5,314.5 162.5,315.5C 155.572,317.054 148.572,317.554 141.5,317C 126.606,312.651 111.439,309.817 96,308.5C 87.317,308.115 79.817,310.781 73.5,316.5C 73.8869,317.72 74.7202,318.387 76,318.5C 89.5796,314.113 103.413,313.28 117.5,316C 124.875,317.118 132.209,318.451 139.5,320C 147.215,320.767 154.882,320.6 162.5,319.5C 162.5,325.833 162.5,332.167 162.5,338.5C 162.565,338.938 162.399,339.272 162,339.5C 157.348,337.817 152.515,337.15 147.5,337.5C 147.953,336.542 148.619,335.708 149.5,335C 149.33,333.43 148.997,331.597 148.5,329.5C 131.874,332.092 115.207,334.425 98.5,336.5C 91.0227,336.298 83.6894,335.132 76.5,333C 72.4676,331.622 68.9676,329.456 66,326.5C 65.5065,328.134 65.3398,329.801 65.5,331.5C 61.9068,316.492 67.9068,306.992 83.5,303C 89.7849,301.645 96.1182,301.311 102.5,302C 115.026,304.175 127.359,307.175 139.5,311C 146.112,312.21 152.778,312.71 159.5,312.5 Z"/></g>
<g><path style="opacity:1" fill="#ac7846" d="M 162.5,315.5 C 162.5,316.833 162.5,318.167 162.5,319.5C 154.882,320.6 147.215,320.767 139.5,320C 132.209,318.451 124.875,317.118 117.5,316C 103.413,313.28 89.5796,314.113 76,318.5C 74.7202,318.387 73.8869,317.72 73.5,316.5C 79.817,310.781 87.317,308.115 96,308.5C 111.439,309.817 126.606,312.651 141.5,317C 148.572,317.554 155.572,317.054 162.5,315.5 Z"/></g>
<g><path style="opacity:1" fill="#3a3938" d="M 639.5,311.5 C 642.134,317.97 642.8,324.636 641.5,331.5C 640.778,331.918 640.278,332.584 640,333.5C 639.098,328.706 638.265,324.039 637.5,319.5C 636.388,317.401 635.721,315.067 635.5,312.5C 636.211,310.158 637.544,309.825 639.5,311.5 Z"/></g>
<g><path style="opacity:1" fill="#dcb080" d="M 505.5,344.5 C 503.363,345.787 501.03,346.621 498.5,347C 431.5,347.333 364.5,347.667 297.5,348C 298.167,348.333 298.833,348.667 299.5,349C 298.748,349.671 298.414,350.504 298.5,351.5C 296.44,348.76 294.774,345.76 293.5,342.5C 293.773,340.549 293.107,339.049 291.5,338C 292.552,336.284 291.886,335.284 289.5,335C 290.019,332.974 290.353,330.974 290.5,329C 289.953,328.075 289.287,327.242 288.5,326.5C 286.38,327.872 285.38,327.205 285.5,324.5C 356.834,324.667 428.167,324.5 499.5,324C 501.219,322.943 503.053,322.11 505,321.5C 505.5,329.159 505.666,336.826 505.5,344.5 Z"/></g>
<g><path style="opacity:1" fill="#e1dcd4" d="M 159.5,312.5 C 160.568,311.566 161.901,311.232 163.5,311.5C 163.827,320.682 163.493,329.682 162.5,338.5C 162.5,332.167 162.5,325.833 162.5,319.5C 162.5,318.167 162.5,316.833 162.5,315.5C 162.5,314.5 162.5,313.5 162.5,312.5C 161.5,312.5 160.5,312.5 159.5,312.5 Z"/></g>
<g><path style="opacity:1" fill="#693d16" d="M 614.5,343.5 C 611.578,345.531 608.245,346.698 604.5,347C 597.833,347.667 591.167,347.667 584.5,347C 573.754,344.647 563.087,341.98 552.5,339C 539.475,335.089 527.975,337.589 518,346.5C 515.391,346.162 513.224,345.162 511.5,343.5C 511.333,331.162 511.5,318.829 512,306.5C 512.465,315.922 513.631,325.089 515.5,334C 520.44,333.877 525.107,332.544 529.5,330C 532.833,329.833 536.167,329.667 539.5,329.5C 556.41,331.235 573.243,333.568 590,336.5C 601.728,336.651 612.728,333.984 623,328.5C 623.667,329.5 623.667,330.5 623,331.5C 621.294,333.705 619.794,336.038 618.5,338.5C 616.162,336.989 615.496,337.323 616.5,339.5C 615.147,340.524 614.48,341.857 614.5,343.5 Z"/></g>
<g><path style="opacity:1" fill="#454544" d="M 637.5,319.5 C 638.265,324.039 639.098,328.706 640,333.5C 640.278,332.584 640.778,331.918 641.5,331.5C 639.42,342.01 634.087,350.344 625.5,356.5C 625.5,355.5 625.5,354.5 625.5,353.5C 623.784,353.629 622.117,353.962 620.5,354.5C 632.794,346.243 638.46,334.576 637.5,319.5 Z"/></g>
<g><path style="opacity:1" fill="#6a3c16" d="M 147.5,337.5 C 134.505,340.499 121.505,343.665 108.5,347C 100.658,348.928 92.9916,348.761 85.5,346.5C 83.4855,345.076 81.1522,344.41 78.5,344.5C 71.8333,342.5 67.5,338.167 65.5,331.5C 65.3398,329.801 65.5065,328.134 66,326.5C 68.9676,329.456 72.4676,331.622 76.5,333C 83.6894,335.132 91.0227,336.298 98.5,336.5C 115.207,334.425 131.874,332.092 148.5,329.5C 148.997,331.597 149.33,333.43 149.5,335C 148.619,335.708 147.953,336.542 147.5,337.5 Z"/></g>
<g><path style="opacity:1" fill="#4d4c4c" d="M 195.5,195.5 C 196.167,236.832 196.5,278.332 196.5,320C 196.5,361.839 195.833,403.339 194.5,444.5C 185.12,433.432 176.953,421.432 170,408.5C 169.333,349.833 169.333,291.167 170,232.5C 177.042,219.056 185.542,206.723 195.5,195.5 Z"/></g>
<g><path style="opacity:1" fill="#a2836b" d="M 78.5,344.5 C 81.1522,344.41 83.4855,345.076 85.5,346.5C 82.8478,346.59 80.5145,345.924 78.5,344.5 Z"/></g>
<g><path style="opacity:1" fill="#3f3f3f" d="M 71.5,290.5 C 73.8418,291.211 74.1751,292.544 72.5,294.5C 53.3402,307.184 49.1736,323.851 60,344.5C 65.5627,351.578 72.7294,355.911 81.5,357.5C 81.5,358.5 81.5,359.5 81.5,360.5C 80.8485,359.909 80.1818,359.243 79.5,358.5C 78.52,361.086 78.1866,363.753 78.5,366.5C 77.8365,364.958 77.1698,363.291 76.5,361.5C 52.8216,351.473 44.8216,334.14 52.5,309.5C 54.7593,308.656 55.7593,306.989 55.5,304.5C 59.2764,298.057 64.6097,293.39 71.5,290.5 Z"/></g>
<g><path style="opacity:1" fill="#cb996b" d="M 505.5,344.5 C 505.5,347.5 505.5,350.5 505.5,353.5C 502.976,354.927 500.31,356.094 497.5,357C 432.492,356.836 367.826,357.669 303.5,359.5C 301.347,357.206 299.68,354.54 298.5,351.5C 298.414,350.504 298.748,349.671 299.5,349C 298.833,348.667 298.167,348.333 297.5,348C 364.5,347.667 431.5,347.333 498.5,347C 501.03,346.621 503.363,345.787 505.5,344.5 Z"/></g>
<g><path style="opacity:1" fill="#b8865d" d="M 505.5,353.5 C 505.5,355.833 505.5,358.167 505.5,360.5C 505.249,362.17 504.582,363.67 503.5,365C 500.679,367.001 497.513,368.167 494,368.5C 469.855,367.524 445.689,367.191 421.5,367.5C 419.833,367.5 418.167,367.5 416.5,367.5C 410.5,367.5 404.5,367.5 398.5,367.5C 368.338,366.502 338.005,366.169 307.5,366.5C 305.412,364.664 304.079,362.331 303.5,359.5C 367.826,357.669 432.492,356.836 497.5,357C 500.31,356.094 502.976,354.927 505.5,353.5 Z"/></g>
<g><path style="opacity:1" fill="#2f302f" d="M 625.5,356.5 C 622.593,358.805 619.259,360.138 615.5,360.5C 613.952,360.179 613.285,359.179 613.5,357.5C 615.38,357.771 616.713,357.104 617.5,355.5C 618.391,354.89 619.391,354.557 620.5,354.5C 622.117,353.962 623.784,353.629 625.5,353.5C 625.5,354.5 625.5,355.5 625.5,356.5 Z"/></g>
<g><path style="opacity:1" fill="#666564" d="M 617.5,355.5 C 616.713,357.104 615.38,357.771 613.5,357.5C 613.285,359.179 613.952,360.179 615.5,360.5C 614.828,361.267 613.995,361.934 613,362.5C 612.802,364.382 612.302,366.048 611.5,367.5C 611.223,364.552 611.556,361.719 612.5,359C 611.552,358.517 610.552,358.351 609.5,358.5C 611.936,357.129 614.603,356.129 617.5,355.5 Z"/></g>
<g><path style="opacity:1" fill="#949494" d="M 594.5,361.5 C 595.568,360.566 596.901,360.232 598.5,360.5C 598.784,362.415 598.451,364.081 597.5,365.5C 597.5,364.167 597.5,362.833 597.5,361.5C 596.5,361.5 595.5,361.5 594.5,361.5 Z"/></g>
<g><path style="opacity:1" fill="#a9693e" d="M 92.5,363.5 C 109.671,362.173 127.005,362.173 144.5,363.5C 140.154,373.521 135.821,383.521 131.5,393.5C 118.5,383.5 105.5,373.5 92.5,363.5 Z"/></g>
<g><path style="opacity:1" fill="#c5a184" d="M 307.5,366.5 C 338.005,366.169 368.338,366.502 398.5,367.5C 398.5,368.167 398.167,368.5 397.5,368.5C 367.5,367.833 337.5,367.167 307.5,366.5 Z"/></g>
<g><path style="opacity:1" fill="#5c5d5f" d="M 398.5,367.5 C 404.5,367.5 410.5,367.5 416.5,367.5C 415.953,373.183 412.453,376.183 406,376.5C 404.408,376.395 402.908,376.061 401.5,375.5C 399.365,373.631 396.698,372.964 393.5,373.5C 394.833,371.833 396.167,370.167 397.5,368.5C 398.167,368.5 398.5,368.167 398.5,367.5 Z"/></g>
<g><path style="opacity:1" fill="#373636" d="M 609.5,358.5 C 610.552,358.351 611.552,358.517 612.5,359C 611.556,361.719 611.223,364.552 611.5,367.5C 611.041,373.809 609.707,379.809 607.5,385.5C 606.763,387.382 605.596,388.048 604,387.5C 603.517,386.552 603.351,385.552 603.5,384.5C 605.214,375.651 607.214,366.985 609.5,358.5 Z"/></g>
<g><path style="opacity:1" fill="#363533" d="M 81.5,360.5 C 82.8608,365.304 83.8608,370.304 84.5,375.5C 84.2938,378.495 84.9605,381.162 86.5,383.5C 86.477,385.927 85.977,388.26 85,390.5C 84.7216,389.584 84.2216,388.918 83.5,388.5C 80.9158,381.487 79.2492,374.154 78.5,366.5C 78.1866,363.753 78.52,361.086 79.5,358.5C 80.1818,359.243 80.8485,359.909 81.5,360.5 Z"/></g>
<g><path style="opacity:1" fill="#84817d" d="M 84.5,375.5 C 85.7682,377.905 86.4349,380.572 86.5,383.5C 84.9605,381.162 84.2938,378.495 84.5,375.5 Z"/></g>
<g><path style="opacity:1" fill="#383737" d="M 393.5,373.5 C 396.698,372.964 399.365,373.631 401.5,375.5C 392.533,384.635 383.7,393.969 375,403.5C 366.613,393.947 357.78,384.947 348.5,376.5C 363.305,374.839 378.305,373.839 393.5,373.5 Z"/></g>
<g><path style="opacity:1" fill="#6a6a69" d="M 416.5,367.5 C 418.167,367.5 419.833,367.5 421.5,367.5C 416.254,378.333 410.254,388.666 403.5,398.5C 402.167,450.833 402.167,503.167 403.5,555.5C 404.287,557.104 405.62,557.771 407.5,557.5C 406.432,558.434 405.099,558.768 403.5,558.5C 403.5,559.5 403.5,560.5 403.5,561.5C 404.833,561.5 406.167,561.5 407.5,561.5C 384.558,568.049 361.224,570.716 337.5,569.5C 340.833,569.5 344.167,569.5 347.5,569.5C 347.5,559.167 347.5,548.833 347.5,538.5C 347.5,532.5 347.5,526.5 347.5,520.5C 348.495,507.677 348.829,494.677 348.5,481.5C 357.833,481.5 367.167,481.5 376.5,481.5C 376.715,479.821 376.048,478.821 374.5,478.5C 365.833,464.5 357.167,450.5 348.5,436.5C 348.5,416.5 348.5,396.5 348.5,376.5C 357.78,384.947 366.613,393.947 375,403.5C 383.7,393.969 392.533,384.635 401.5,375.5C 402.908,376.061 404.408,376.395 406,376.5C 412.453,376.183 415.953,373.183 416.5,367.5 Z"/></g>
<g><path style="opacity:1" fill="#595958" d="M 603.5,384.5 C 603.351,385.552 603.517,386.552 604,387.5C 605.596,388.048 606.763,387.382 607.5,385.5C 607.279,388.067 606.612,390.401 605.5,392.5C 605.5,391.167 605.5,389.833 605.5,388.5C 604.5,388.5 603.5,388.5 602.5,388.5C 602.232,386.901 602.566,385.568 603.5,384.5 Z"/></g>
<g><path style="opacity:1" fill="#434341" d="M 86.5,383.5 C 89.1335,391.738 91.8002,400.071 94.5,408.5C 93.5178,407.859 92.5178,407.193 91.5,406.5C 90.6143,407.325 90.281,408.325 90.5,409.5C 87.4139,402.853 85.0805,395.853 83.5,388.5C 84.2216,388.918 84.7216,389.584 85,390.5C 85.977,388.26 86.477,385.927 86.5,383.5 Z"/></g>
<g><path style="opacity:1" fill="#8f8e8e" d="M 393.5,373.5 C 378.305,373.839 363.305,374.839 348.5,376.5C 348.5,396.5 348.5,416.5 348.5,436.5C 347.503,415.673 347.169,394.673 347.5,373.5C 362.833,373.5 378.167,373.5 393.5,373.5 Z"/></g>
<g><path style="opacity:1" fill="#6d6d6d" d="M 482.5,374.5 C 472.81,374.168 463.144,374.502 453.5,375.5C 467.585,398.668 481.419,422.002 495,445.5C 508.305,454.793 522.138,463.293 536.5,471C 537.883,472.271 538.883,473.771 539.5,475.5C 539.167,475.5 538.833,475.5 538.5,475.5C 520.497,475.667 502.497,475.5 484.5,475C 467.333,445.833 450.167,416.667 433,387.5C 430.115,383.131 427.949,378.464 426.5,373.5C 445.341,373.17 464.007,373.503 482.5,374.5 Z"/></g>
<g><path style="opacity:1" fill="#4d4d4d" d="M 482.5,374.5 C 500.172,403.685 517.672,433.019 535,462.5C 537.061,466.012 539.561,469.012 542.5,471.5C 541.488,472.872 540.488,474.205 539.5,475.5C 538.883,473.771 537.883,472.271 536.5,471C 522.138,463.293 508.305,454.793 495,445.5C 481.419,422.002 467.585,398.668 453.5,375.5C 463.144,374.502 472.81,374.168 482.5,374.5 Z"/></g>
<g><path style="opacity:1" fill="#d4d4d3" d="M 223.5,392.5 C 223.833,419.175 223.5,445.842 222.5,472.5C 221.893,472.376 221.56,472.043 221.5,471.5C 222.167,445.167 222.833,418.833 223.5,392.5 Z"/></g>
<g><path style="opacity:1" fill="#3c3b3b" d="M 594.5,361.5 C 595.5,361.5 596.5,361.5 597.5,361.5C 597.5,362.833 597.5,364.167 597.5,365.5C 585.682,420.311 559.015,466.478 517.5,504C 491.074,527.226 461.074,544.393 427.5,555.5C 425.692,555.509 424.025,555.009 422.5,554C 423.056,553.617 423.389,553.117 423.5,552.5C 458.911,540.806 490.245,522.473 517.5,497.5C 522.833,494.167 527.167,489.833 530.5,484.5C 533.167,481.5 535.833,478.5 538.5,475.5C 538.833,475.5 539.167,475.5 539.5,475.5C 540.488,474.205 541.488,472.872 542.5,471.5C 546.147,465.86 550.147,460.527 554.5,455.5C 555.906,455.027 556.573,454.027 556.5,452.5C 557.906,452.027 558.573,451.027 558.5,449.5C 575.78,422.326 587.78,392.993 594.5,361.5 Z"/></g>
<g><path style="opacity:1" fill="#7f7f7e" d="M 558.5,449.5 C 558.573,451.027 557.906,452.027 556.5,452.5C 556.427,450.973 557.094,449.973 558.5,449.5 Z"/></g>
<g><path style="opacity:1" fill="#797877" d="M 556.5,452.5 C 556.573,454.027 555.906,455.027 554.5,455.5C 554.427,453.973 555.094,452.973 556.5,452.5 Z"/></g>
<g><path style="opacity:1" fill="#c78758" d="M 92.5,363.5 C 105.5,373.5 118.5,383.5 131.5,393.5C 152.154,446.323 187.487,486.156 237.5,513C 272.143,530.492 308.809,538.992 347.5,538.5C 347.5,548.833 347.5,559.167 347.5,569.5C 344.167,569.5 340.833,569.5 337.5,569.5C 242.582,565.314 170.415,522.981 121,442.5C 106.967,417.774 97.4669,391.441 92.5,363.5 Z"/></g>
<g><path style="opacity:1" fill="#e2e2e1" d="M 363.5,472.5 C 364.404,473.209 364.737,474.209 364.5,475.5C 344.326,475.83 324.326,475.497 304.5,474.5C 324.528,475.154 344.195,474.488 363.5,472.5 Z"/></g>
<g><path style="opacity:1" fill="#8d8c8b" d="M 374.5,478.5 C 376.048,478.821 376.715,479.821 376.5,481.5C 367.167,481.5 357.833,481.5 348.5,481.5C 348.829,494.677 348.495,507.677 347.5,520.5C 347.5,507.167 347.5,493.833 347.5,480.5C 356.839,480.666 366.173,480.5 375.5,480C 374.944,479.617 374.611,479.117 374.5,478.5 Z"/></g>
<g><path style="opacity:1" fill="#767776" d="M 530.5,484.5 C 527.167,489.833 522.833,494.167 517.5,497.5C 521.5,492.833 525.833,488.5 530.5,484.5 Z"/></g>
<g><path style="opacity:1" fill="#d8a277" d="M 347.5,520.5 C 347.5,526.5 347.5,532.5 347.5,538.5C 308.809,538.992 272.143,530.492 237.5,513C 187.487,486.156 152.154,446.323 131.5,393.5C 135.821,383.521 140.154,373.521 144.5,363.5C 127.005,362.173 109.671,362.173 92.5,363.5C 91.9569,363.44 91.6236,363.107 91.5,362.5C 109.491,361.334 127.491,361.167 145.5,362C 162.99,428.696 202.99,476.362 265.5,505C 291.79,515.625 319.124,520.791 347.5,520.5 Z"/></g>
<g><path style="opacity:1" fill="#828182" d="M 403.5,398.5 C 403.508,451.139 403.508,503.472 403.5,555.5C 402.167,503.167 402.167,450.833 403.5,398.5 Z"/></g>
<g><path style="opacity:1" fill="#3d3c3c" d="M 602.5,388.5 C 603.5,388.5 604.5,388.5 605.5,388.5C 605.5,389.833 605.5,391.167 605.5,392.5C 582.838,462.325 539.504,515.159 475.5,551C 467.384,555.393 459.051,559.226 450.5,562.5C 451.954,560.737 451.62,559.403 449.5,558.5C 525.049,523.95 576.049,467.283 602.5,388.5 Z"/></g>
<g><path style="opacity:1" fill="#3b3a39" d="M 94.5,408.5 C 126.858,489.857 184.858,543.524 268.5,569.5C 266.856,569.286 265.356,569.62 264,570.5C 263.692,569.692 263.192,569.025 262.5,568.5C 261.205,569.098 259.872,569.598 258.5,570C 259.056,570.383 259.389,570.883 259.5,571.5C 238.166,564.831 218.166,555.497 199.5,543.5C 199.027,542.094 198.027,541.427 196.5,541.5C 194.147,540.66 192.147,539.326 190.5,537.5C 190.027,536.094 189.027,535.427 187.5,535.5C 141.722,503.988 109.389,461.988 90.5,409.5C 90.281,408.325 90.6143,407.325 91.5,406.5C 92.5178,407.193 93.5178,407.859 94.5,408.5 Z"/></g>
<g><path style="opacity:1" fill="#7d7d7d" d="M 187.5,535.5 C 189.027,535.427 190.027,536.094 190.5,537.5C 188.973,537.573 187.973,536.906 187.5,535.5 Z"/></g>
<g><path style="opacity:1" fill="#8f8e8e" d="M 196.5,541.5 C 198.027,541.427 199.027,542.094 199.5,543.5C 197.973,543.573 196.973,542.906 196.5,541.5 Z"/></g>
<g><path style="opacity:1" fill="#4d4e4d" d="M 423.5,552.5 C 423.389,553.117 423.056,553.617 422.5,554C 424.025,555.009 425.692,555.509 427.5,555.5C 423.784,557.405 419.784,558.739 415.5,559.5C 415.918,558.778 416.584,558.278 417.5,558C 417.167,557.667 416.833,557.333 416.5,557C 413.493,556.699 410.493,556.865 407.5,557.5C 412.64,555.543 417.973,553.876 423.5,552.5 Z"/></g>
<g><path style="opacity:1" fill="#2b2a29" d="M 415.5,559.5 C 413.095,560.768 410.428,561.435 407.5,561.5C 406.167,561.5 404.833,561.5 403.5,561.5C 403.5,560.5 403.5,559.5 403.5,558.5C 405.099,558.768 406.432,558.434 407.5,557.5C 410.493,556.865 413.493,556.699 416.5,557C 416.833,557.333 417.167,557.667 417.5,558C 416.584,558.278 415.918,558.778 415.5,559.5 Z"/></g>
<g><path style="opacity:1" fill="#5b5b59" d="M 431.5,565.5 C 427.498,567.61 423.165,568.943 418.5,569.5C 422.502,567.39 426.835,566.057 431.5,565.5 Z"/></g>
<g><path style="opacity:1" fill="#787777" d="M 260.5,571.5 C 263.152,571.41 265.485,572.076 267.5,573.5C 264.848,573.59 262.515,572.924 260.5,571.5 Z"/></g>
<g><path style="opacity:1" fill="#7e7c7b" d="M 267.5,573.5 C 270.152,573.41 272.485,574.076 274.5,575.5C 271.848,575.59 269.515,574.924 267.5,573.5 Z"/></g>
<g><path style="opacity:1" fill="#737372" d="M 396.5,574.5 C 393.155,576.217 389.489,576.884 385.5,576.5C 388.974,575.475 392.64,574.808 396.5,574.5 Z"/></g>
<g><path style="opacity:1" fill="#403f3e" d="M 449.5,558.5 C 451.62,559.403 451.954,560.737 450.5,562.5C 425.726,573.528 399.726,580.194 372.5,582.5C 373.952,581.698 375.618,581.198 377.5,581C 375.348,579.587 373.014,578.754 370.5,578.5C 375.306,577.407 380.306,576.741 385.5,576.5C 389.489,576.884 393.155,576.217 396.5,574.5C 403.738,572.524 411.072,570.858 418.5,569.5C 423.165,568.943 427.498,567.61 431.5,565.5C 437.279,562.792 443.279,560.459 449.5,558.5 Z"/></g>
<g><path style="opacity:1" fill="#3f3e3d" d="M 268.5,569.5 C 301.964,578.391 335.964,581.391 370.5,578.5C 373.014,578.754 375.348,579.587 377.5,581C 375.618,581.198 373.952,581.698 372.5,582.5C 339.395,586.575 306.728,584.241 274.5,575.5C 272.485,574.076 270.152,573.41 267.5,573.5C 265.485,572.076 263.152,571.41 260.5,571.5C 260.167,571.5 259.833,571.5 259.5,571.5C 259.389,570.883 259.056,570.383 258.5,570C 259.872,569.598 261.205,569.098 262.5,568.5C 263.192,569.025 263.692,569.692 264,570.5C 265.356,569.62 266.856,569.286 268.5,569.5 Z"/></g>
</svg>
