<?xml version="1.0" encoding="UTF-8"?>
<!DOCTYPE svg PUBLIC "-//W3C//DTD SVG 1.1//EN" "http://www.w3.org/Graphics/SVG/1.1/DTD/svg11.dtd">
<svg xmlns="http://www.w3.org/2000/svg" version="1.1" width="624px" height="182px" style="shape-rendering:geometricPrecision; text-rendering:geometricPrecision; image-rendering:optimizeQuality; fill-rule:evenodd; clip-rule:evenodd" xmlns:xlink="http://www.w3.org/1999/xlink">
<g><path style="opacity:1" fill="#575655" d="M 443.5,26.5 C 443.5,26.8333 443.5,27.1667 443.5,27.5C 352.242,27.518 260.908,27.518 169.5,27.5C 169.5,27.1667 169.5,26.8333 169.5,26.5C 260.846,25.1691 352.179,25.1691 443.5,26.5 Z"/></g>
<g><path style="opacity:1" fill="#201f1e" d="M 169.5,27.5 C 260.908,27.518 352.242,27.518 443.5,27.5C 443.938,27.4346 444.272,27.6012 444.5,28C 443.922,29.417 442.922,30.2504 441.5,30.5C 351.166,30.3333 260.833,30.5 170.5,31C 168.134,31.4396 165.801,31.9396 163.5,32.5C 163.5,31.1667 163.5,29.8333 163.5,28.5C 165.5,28.1667 167.5,27.8333 169.5,27.5 Z"/></g>
<g><path style="opacity:1" fill="#323232" d="M 169.5,26.5 C 169.5,26.8333 169.5,27.1667 169.5,27.5C 167.5,27.8333 165.5,28.1667 163.5,28.5C 163.5,29.8333 163.5,31.1667 163.5,32.5C 155.917,36.9575 151.251,43.6242 149.5,52.5C 147.111,53.1805 144.778,54.0138 142.5,55C 140.886,57.1267 138.886,58.6267 136.5,59.5C 136.5,58.5 136.5,57.5 136.5,56.5C 134.784,56.6287 133.117,56.962 131.5,57.5C 131.5,57.1667 131.5,56.8333 131.5,56.5C 136.226,53.7187 141.059,51.052 146,48.5C 148.884,35.7803 156.717,28.447 169.5,26.5 Z"/></g>
<g><path style="opacity:1" fill="#343433" d="M 443.5,27.5 C 443.5,27.1667 443.5,26.8333 443.5,26.5C 454.099,28.7673 460.766,35.1006 463.5,45.5C 462.076,47.5145 461.41,49.8478 461.5,52.5C 459.345,41.0141 452.679,33.6807 441.5,30.5C 442.922,30.2504 443.922,29.417 444.5,28C 444.272,27.6012 443.938,27.4346 443.5,27.5 Z"/></g>
<g><path style="opacity:1" fill="#e9c59a" d="M 447.5,47.5 C 447.404,50.761 446.57,54.0943 445,57.5C 443.457,55.6217 441.624,54.1217 439.5,53C 349.833,52.3333 260.167,52.3333 170.5,53C 166.874,55.2513 165.707,58.4179 167,62.5C 168.776,63.5361 170.609,63.5361 172.5,62.5C 171.32,64.0145 170.32,65.6812 169.5,67.5C 168.522,67.0233 167.689,66.3567 167,65.5C 166.689,67.556 166.189,69.556 165.5,71.5C 166.609,72.9647 166.109,73.9647 164,74.5C 163.819,71.3054 163.319,68.3054 162.5,65.5C 161.217,59.5213 161.384,53.5213 163,47.5C 165.076,44.4121 167.909,42.5788 171.5,42C 260.695,41.9093 350.028,41.9093 439.5,42C 443.191,42.55 445.857,44.3833 447.5,47.5 Z"/></g>
<g><path style="opacity:1" fill="#353433" d="M 561.5,48.5 C 560.402,49.397 560.402,50.2303 561.5,51C 560.552,51.4828 559.552,51.6495 558.5,51.5C 546.117,50.0262 533.784,50.3595 521.5,52.5C 519.073,52.477 516.74,51.977 514.5,51C 515.737,50.7679 516.737,50.2679 517.5,49.5C 528.787,45.9083 540.453,44.7417 552.5,46C 555.797,46.2037 558.797,47.037 561.5,48.5 Z"/></g>
<g><path style="opacity:1" fill="#323130" d="M 102.5,51.5 C 103.635,52.4745 104.635,53.6412 105.5,55C 103.203,55.0178 100.869,54.8511 98.5,54.5C 84.7179,50.893 70.7179,49.7263 56.5,51C 53.176,51.9428 49.8426,52.7761 46.5,53.5C 44.1305,53.8511 41.7972,54.0178 39.5,54C 40.056,53.6174 40.3893,53.1174 40.5,52.5C 48.7956,47.2018 57.9623,44.8685 68,45.5C 79.8314,45.767 91.3314,47.767 102.5,51.5 Z"/></g>
<g><path style="opacity:1" fill="#4c4b4a" d="M 517.5,49.5 C 516.737,50.2679 515.737,50.7679 514.5,51C 516.74,51.977 519.073,52.477 521.5,52.5C 519.401,53.6118 517.067,54.2785 514.5,54.5C 514.918,53.7784 515.584,53.2784 516.5,53C 514.564,52.187 512.564,51.687 510.5,51.5C 512.515,50.0762 514.848,49.4095 517.5,49.5 Z"/></g>
<g><path style="opacity:1" fill="#efd0ab" d="M 447.5,47.5 C 448.935,50.5499 449.602,53.8832 449.5,57.5C 449.495,59.6965 449.162,61.6965 448.5,63.5C 448.5,61.8333 448.5,60.1667 448.5,58.5C 447.5,58.5 446.5,58.5 445.5,58.5C 446.085,61.2605 445.085,62.9272 442.5,63.5C 352.522,62.5051 262.522,62.1717 172.5,62.5C 170.609,63.5361 168.776,63.5361 167,62.5C 165.707,58.4179 166.874,55.2513 170.5,53C 260.167,52.3333 349.833,52.3333 439.5,53C 441.624,54.1217 443.457,55.6217 445,57.5C 446.57,54.0943 447.404,50.761 447.5,47.5 Z"/></g>
<g><path style="opacity:1" fill="#454443" d="M 102.5,51.5 C 111.962,54.3257 121.629,55.9924 131.5,56.5C 131.5,56.8333 131.5,57.1667 131.5,57.5C 127.44,57.4847 123.44,57.9847 119.5,59C 120.416,59.2784 121.082,59.7784 121.5,60.5C 113.527,59.2578 105.86,57.2578 98.5,54.5C 100.869,54.8511 103.203,55.0178 105.5,55C 104.635,53.6412 103.635,52.4745 102.5,51.5 Z"/></g>
<g><path style="opacity:1" fill="#333232" d="M 463.5,45.5 C 464.249,46.531 464.915,47.6976 465.5,49C 470.124,50.3105 474.124,52.6438 477.5,56C 481.5,56.6667 485.5,56.6667 489.5,56C 496.481,54.3376 503.481,52.8376 510.5,51.5C 512.564,51.687 514.564,52.187 516.5,53C 515.584,53.2784 514.918,53.7784 514.5,54.5C 504.448,57.9289 494.115,60.2622 483.5,61.5C 477.534,61.516 472.534,59.3494 468.5,55C 466.192,54.0093 463.859,53.176 461.5,52.5C 461.41,49.8478 462.076,47.5145 463.5,45.5 Z"/></g>
<g><path style="opacity:1" fill="#2b2b2a" d="M 136.5,59.5 C 131.713,61.6908 126.713,62.0242 121.5,60.5C 121.082,59.7784 120.416,59.2784 119.5,59C 123.44,57.9847 127.44,57.4847 131.5,57.5C 133.117,56.962 134.784,56.6287 136.5,56.5C 136.5,57.5 136.5,58.5 136.5,59.5 Z"/></g>
<g><path style="opacity:1" fill="#e5be92" d="M 448.5,63.5 C 449.37,74.0003 449.37,84.3337 448.5,94.5C 448.666,90.1539 448.499,85.8206 448,81.5C 445.929,82.5248 443.762,83.3581 441.5,84C 350.833,84.6667 260.167,84.6667 169.5,84C 167.138,82.4894 164.805,80.9894 162.5,79.5C 162.5,74.8333 162.5,70.1667 162.5,65.5C 163.319,68.3054 163.819,71.3054 164,74.5C 166.109,73.9647 166.609,72.9647 165.5,71.5C 166.189,69.556 166.689,67.556 167,65.5C 167.689,66.3567 168.522,67.0233 169.5,67.5C 170.32,65.6812 171.32,64.0145 172.5,62.5C 262.522,62.1717 352.522,62.5051 442.5,63.5C 445.085,62.9272 446.085,61.2605 445.5,58.5C 446.5,58.5 447.5,58.5 448.5,58.5C 448.5,60.1667 448.5,61.8333 448.5,63.5 Z"/></g>
<g><path style="opacity:1" fill="#303232" d="M 40.5,52.5 C 40.3893,53.1174 40.056,53.6174 39.5,54C 41.7972,54.0178 44.1305,53.8511 46.5,53.5C 39.8818,57.1178 34.5485,62.1178 30.5,68.5C 30.8795,65.4331 29.8795,64.4331 27.5,65.5C 30.1667,59.5 34.5,55.1667 40.5,52.5 Z"/></g>
<g><path style="opacity:1" fill="#a27b5c" d="M 157.5,65.5 C 156.504,65.4142 155.671,65.7476 155,66.5C 154.326,65.4216 153.326,64.7549 152,64.5C 149.718,65.2898 147.552,66.2898 145.5,67.5C 148.851,63.021 152.851,62.3544 157.5,65.5 Z"/></g>
<g><path style="opacity:1" fill="#373636" d="M 561.5,48.5 C 574.726,52.0593 583.393,60.3926 587.5,73.5C 585.544,71.8249 584.211,72.1582 583.5,74.5C 578.678,63.0114 570.345,55.3447 558.5,51.5C 559.552,51.6495 560.552,51.4828 561.5,51C 560.402,50.2303 560.402,49.397 561.5,48.5 Z"/></g>
<g><path style="opacity:1" fill="#7d481a" d="M 572.5,90.5 C 572.66,88.8008 572.494,87.1341 572,85.5C 571.626,86.4162 571.126,87.2496 570.5,88C 565.151,91.1766 559.484,93.51 553.5,95C 543.167,95.6667 532.833,95.6667 522.5,95C 510.337,92.0006 498.004,90.1672 485.5,89.5C 477.698,88.7844 470.365,90.2844 463.5,94C 461.833,94.6667 460.167,94.6667 458.5,94C 456.718,86.7701 455.885,79.2701 456,71.5C 453.848,69.7227 454.015,68.2227 456.5,67C 455.756,65.9614 454.756,65.4614 453.5,65.5C 456.137,63.5726 459.137,63.0726 462.5,64C 468.536,69.5699 475.702,72.4032 484,72.5C 500.613,69.5552 517.113,66.0552 533.5,62C 545.254,60.018 556.254,62.018 566.5,68C 573.133,74.3813 575.133,81.8813 572.5,90.5 Z"/></g>
<g><path style="opacity:1" fill="#5d5a58" d="M 25.5,69.5 C 25.5905,72.1522 24.9238,74.4855 23.5,76.5C 23.4095,73.8478 24.0762,71.5145 25.5,69.5 Z"/></g>
<g><path style="opacity:1" fill="#3a3938" d="M 587.5,73.5 C 590.167,81.1667 590.167,88.8333 587.5,96.5C 585.241,95.656 584.241,93.9893 584.5,91.5C 584.625,85.7969 584.292,80.1302 583.5,74.5C 584.211,72.1582 585.544,71.8249 587.5,73.5 Z"/></g>
<g><path style="opacity:1" fill="#af7647" d="M 529.5,68.5 C 541.068,67.1832 552.068,69.0165 562.5,74C 563.38,75.3561 563.714,76.8561 563.5,78.5C 554.72,75.7221 545.72,74.3888 536.5,74.5C 518.743,75.7511 501.076,77.7511 483.5,80.5C 480.5,80.3333 477.5,80.1667 474.5,80C 468.915,77.5287 463.248,75.362 457.5,73.5C 457.085,71.0523 458.085,69.7189 460.5,69.5C 464.828,71.6641 469.162,73.8308 473.5,76C 480.5,76.6667 487.5,76.6667 494.5,76C 506.314,73.5391 517.98,71.0391 529.5,68.5 Z"/></g>
<g><path style="opacity:1" fill="#2e2e2c" d="M 30.5,68.5 C 26.531,77.6102 25.8644,86.9435 28.5,96.5C 28.1575,98.2252 27.1575,98.7252 25.5,98C 26.1667,97.6667 26.8333,97.3333 27.5,97C 25.9733,95.9681 24.64,94.8014 23.5,93.5C 22.196,87.734 22.196,82.0673 23.5,76.5C 24.9238,74.4855 25.5905,72.1522 25.5,69.5C 25.6596,67.847 26.3263,66.5137 27.5,65.5C 29.8795,64.4331 30.8795,65.4331 30.5,68.5 Z"/></g>
<g><path style="opacity:1" fill="#dbb182" d="M 162.5,79.5 C 164.805,80.9894 167.138,82.4894 169.5,84C 260.167,84.6667 350.833,84.6667 441.5,84C 443.762,83.3581 445.929,82.5248 448,81.5C 448.499,85.8206 448.666,90.1539 448.5,94.5C 448.5,97.8333 448.5,101.167 448.5,104.5C 446.363,105.787 444.03,106.621 441.5,107C 350.833,107.667 260.167,107.667 169.5,107C 167.047,106.041 164.714,104.874 162.5,103.5C 161.422,95.3407 161.422,87.3407 162.5,79.5 Z"/></g>
<g><path style="opacity:1" fill="#80491b" d="M 145.5,67.5 C 147.552,66.2898 149.718,65.2898 152,64.5C 153.326,64.7549 154.326,65.4216 155,66.5C 155.671,65.7476 156.504,65.4142 157.5,65.5C 158.833,78.1667 158.833,90.8333 157.5,103.5C 157.666,93.1613 157.5,82.828 157,72.5C 155.848,78.7697 155.182,85.1031 155,91.5C 154.424,93.8516 152.924,94.8516 150.5,94.5C 145.932,92.7175 141.266,91.2175 136.5,90C 128.5,89.3333 120.5,89.3333 112.5,90C 92.0495,95.9444 71.3828,96.9444 50.5,93C 46.4234,91.2131 42.59,89.0464 39,86.5C 38.5172,87.448 38.3505,88.448 38.5,89.5C 36.0199,75.7556 41.6866,66.9223 55.5,63C 62.7775,61.5328 70.1108,61.1994 77.5,62C 94.4093,65.9776 111.409,69.4776 128.5,72.5C 134.607,72.2245 140.274,70.5578 145.5,67.5 Z"/></g>
<g><path style="opacity:1" fill="#b27949" d="M 60.5,68.5 C 78.5654,68.1776 96.2321,70.6776 113.5,76C 122.23,76.8758 130.896,76.5425 139.5,75C 143.239,73.5866 146.739,71.7533 150,69.5C 151.622,69.9541 152.788,70.9541 153.5,72.5C 145.43,77.7255 136.596,80.3922 127,80.5C 109.027,78.1707 91.0271,76.1707 73,74.5C 64.659,73.8197 56.659,75.153 49,78.5C 45.88,77.4066 45.7133,75.9066 48.5,74C 52.4506,71.8548 56.4506,70.0214 60.5,68.5 Z"/></g>
<g><path style="opacity:1" fill="#70411c" d="M 453.5,65.5 C 454.756,65.4614 455.756,65.9614 456.5,67C 454.015,68.2227 453.848,69.7227 456,71.5C 455.885,79.2701 456.718,86.7701 458.5,94C 460.167,94.6667 461.833,94.6667 463.5,94C 470.365,90.2844 477.698,88.7844 485.5,89.5C 498.004,90.1672 510.337,92.0006 522.5,95C 532.833,95.6667 543.167,95.6667 553.5,95C 559.484,93.51 565.151,91.1766 570.5,88C 571.126,87.2496 571.626,86.4162 572,85.5C 572.494,87.1341 572.66,88.8008 572.5,90.5C 571.944,94.23 570.278,97.3966 567.5,100C 556.508,107.094 544.508,109.427 531.5,107C 520.097,104.649 508.763,101.983 497.5,99C 488.818,97.0815 480.152,97.0815 471.5,99C 467.646,101.531 463.813,104.031 460,106.5C 457.126,106.041 454.792,104.707 453,102.5C 452.188,90.0911 452.355,77.7577 453.5,65.5 Z"/></g>
<g><path style="opacity:1" fill="#6d3e17" d="M 157.5,103.5 C 154.863,105.427 151.863,105.927 148.5,105C 142.853,99.3759 136.02,96.8759 128,97.5C 123.455,97.603 118.955,98.103 114.5,99C 103.162,101.669 91.8287,104.335 80.5,107C 68.5896,108.843 57.2563,107.177 46.5,102C 41.9623,98.9753 39.2956,94.8086 38.5,89.5C 38.3505,88.448 38.5172,87.448 39,86.5C 42.59,89.0464 46.4234,91.2131 50.5,93C 71.3828,96.9444 92.0495,95.9444 112.5,90C 120.5,89.3333 128.5,89.3333 136.5,90C 141.266,91.2175 145.932,92.7175 150.5,94.5C 152.924,94.8516 154.424,93.8516 155,91.5C 155.182,85.1031 155.848,78.7697 157,72.5C 157.5,82.828 157.666,93.1613 157.5,103.5 Z"/></g>
<g><path style="opacity:1" fill="#484947" d="M 23.5,93.5 C 24.64,94.8014 25.9733,95.9681 27.5,97C 26.8333,97.3333 26.1667,97.6667 25.5,98C 27.1575,98.7252 28.1575,98.2252 28.5,96.5C 30.0075,98.1815 31.0075,100.181 31.5,102.5C 29.5627,101.805 28.5627,102.805 28.5,105.5C 25.7633,102.017 24.0966,98.0169 23.5,93.5 Z"/></g>
<g><path style="opacity:1" fill="#cc9c6f" d="M 162.5,103.5 C 164.714,104.874 167.047,106.041 169.5,107C 260.167,107.667 350.833,107.667 441.5,107C 444.03,106.621 446.363,105.787 448.5,104.5C 449.833,109.167 449.833,113.833 448.5,118.5C 448.662,116.473 448.495,114.473 448,112.5C 446.048,114.894 443.548,116.394 440.5,117C 350.167,117.667 259.833,117.667 169.5,117C 167.079,113.689 165.079,113.855 163.5,117.5C 164.363,118.726 164.363,120.06 163.5,121.5C 162.596,119.362 161.929,117.029 161.5,114.5C 162.346,110.882 162.68,107.215 162.5,103.5 Z"/></g>
<g><path style="opacity:1" fill="#1a1919" d="M 122.5,109.5 C 127.161,108.968 131.494,109.801 135.5,112C 130.649,112.174 125.982,112.674 121.5,113.5C 118.784,113.322 116.117,112.822 113.5,112C 114.737,111.768 115.737,111.268 116.5,110.5C 118.265,109.539 120.265,109.205 122.5,109.5 Z"/></g>
<g><path style="opacity:1" fill="#161515" d="M 489.5,109.5 C 490.167,109.5 490.833,109.5 491.5,109.5C 492.469,110.309 493.302,111.309 494,112.5C 495.049,111.483 496.216,111.316 497.5,112C 495.323,113.202 492.989,113.702 490.5,113.5C 489.167,113.5 487.833,113.5 486.5,113.5C 483.359,112.679 480.025,112.179 476.5,112C 476.957,111.586 477.291,111.086 477.5,110.5C 481.445,109.509 485.445,109.176 489.5,109.5 Z"/></g>
<g><path style="opacity:1" fill="#333535" d="M 584.5,91.5 C 584.241,93.9893 585.241,95.656 587.5,96.5C 583.222,109.321 574.555,117.655 561.5,121.5C 563.175,119.544 562.842,118.211 560.5,117.5C 573.025,112.976 581.025,104.31 584.5,91.5 Z"/></g>
<g><path style="opacity:1" fill="#393837" d="M 491.5,109.5 C 499.475,110.743 507.142,112.743 514.5,115.5C 511.506,115.146 510.506,116.146 511.5,118.5C 504.28,117.277 497.28,115.61 490.5,113.5C 492.989,113.702 495.323,113.202 497.5,112C 496.216,111.316 495.049,111.483 494,112.5C 493.302,111.309 492.469,110.309 491.5,109.5 Z"/></g>
<g><path style="opacity:1" fill="#303130" d="M 31.5,102.5 C 37.3238,110.571 44.9905,115.904 54.5,118.5C 53.325,118.281 52.325,118.614 51.5,119.5C 52.6243,120.859 53.9577,121.859 55.5,122.5C 43.71,121.113 34.71,115.446 28.5,105.5C 28.5627,102.805 29.5627,101.805 31.5,102.5 Z"/></g>
<g><path style="opacity:1" fill="#3a3837" d="M 116.5,110.5 C 115.737,111.268 114.737,111.768 113.5,112C 116.117,112.822 118.784,113.322 121.5,113.5C 109.692,116.785 97.6917,119.785 85.5,122.5C 87.0024,120.171 86.3357,118.837 83.5,118.5C 94.284,115.388 105.284,112.721 116.5,110.5 Z"/></g>
<g><path style="opacity:1" fill="#bb8d66" d="M 448.5,118.5 C 447.77,123.732 444.77,126.899 439.5,128C 350.5,128.667 261.5,128.667 172.5,128C 167.987,127.758 164.987,125.592 163.5,121.5C 164.363,120.06 164.363,118.726 163.5,117.5C 165.079,113.855 167.079,113.689 169.5,117C 259.833,117.667 350.167,117.667 440.5,117C 443.548,116.394 446.048,114.894 448,112.5C 448.495,114.473 448.662,116.473 448.5,118.5 Z"/></g>
<g><path style="opacity:1" fill="#3e3e3e" d="M 489.5,109.5 C 485.445,109.176 481.445,109.509 477.5,110.5C 477.291,111.086 476.957,111.586 476.5,112C 480.025,112.179 483.359,112.679 486.5,113.5C 483.15,113.335 479.817,113.502 476.5,114C 473.348,117.154 469.681,119.487 465.5,121C 463.504,128.985 459.171,135.319 452.5,140C 450.35,141.411 448.016,142.245 445.5,142.5C 446.23,140.955 447.563,140.122 449.5,140C 448.437,138.812 447.103,138.312 445.5,138.5C 454.562,134.248 459.895,127.081 461.5,117C 464.376,116.562 467.043,115.562 469.5,114C 471.305,111.597 473.638,109.93 476.5,109C 481.02,108.186 485.354,108.353 489.5,109.5 Z"/></g>
<g><path style="opacity:1" fill="#353432" d="M 514.5,115.5 C 521.886,116.711 529.219,118.044 536.5,119.5C 538.978,120.164 541.645,120.497 544.5,120.5C 548.469,120.706 552.135,120.039 555.5,118.5C 557.042,117.699 558.708,117.366 560.5,117.5C 562.842,118.211 563.175,119.544 561.5,121.5C 544.495,125.622 527.828,124.622 511.5,118.5C 510.506,116.146 511.506,115.146 514.5,115.5 Z"/></g>
<g><path style="opacity:1" fill="#555452" d="M 555.5,118.5 C 552.135,120.039 548.469,120.706 544.5,120.5C 541.645,120.497 538.978,120.164 536.5,119.5C 542.869,119.653 549.203,119.32 555.5,118.5 Z"/></g>
<g><path style="opacity:1" fill="#343332" d="M 54.5,118.5 C 64.1641,119.792 73.8307,119.792 83.5,118.5C 86.3357,118.837 87.0024,120.171 85.5,122.5C 75.3512,124.997 65.3512,124.997 55.5,122.5C 53.9577,121.859 52.6243,120.859 51.5,119.5C 52.325,118.614 53.325,118.281 54.5,118.5 Z"/></g>
<g><path style="opacity:1" fill="#3a3938" d="M 122.5,109.5 C 126.311,108.355 130.311,108.188 134.5,109C 138.167,111.333 141.833,113.667 145.5,116C 147.134,116.494 148.801,116.66 150.5,116.5C 151.558,126.642 156.558,133.975 165.5,138.5C 163.952,138.821 163.285,139.821 163.5,141.5C 154.224,137.714 148.224,130.88 145.5,121C 141.241,119.066 137.241,116.732 133.5,114C 129.514,113.501 125.514,113.334 121.5,113.5C 125.982,112.674 130.649,112.174 135.5,112C 131.494,109.801 127.161,108.968 122.5,109.5 Z"/></g>
<g><path style="opacity:1" fill="#161513" d="M 165.5,138.5 C 165.833,138.5 166.167,138.5 166.5,138.5C 167.263,139.268 168.263,139.768 169.5,140C 259.855,140.172 350.188,140.672 440.5,141.5C 442.336,140.604 444.003,139.604 445.5,138.5C 447.103,138.312 448.437,138.812 449.5,140C 447.563,140.122 446.23,140.955 445.5,142.5C 441.32,144.046 436.987,144.379 432.5,143.5C 343.668,142.501 254.668,142.167 165.5,142.5C 164.508,142.672 163.842,142.338 163.5,141.5C 163.285,139.821 163.952,138.821 165.5,138.5 Z"/></g>
<g><path style="opacity:1" fill="#3b3a39" d="M 166.5,138.5 C 259.496,139.831 352.496,139.831 445.5,138.5C 444.003,139.604 442.336,140.604 440.5,141.5C 350.188,140.672 259.855,140.172 169.5,140C 168.263,139.768 167.263,139.268 166.5,138.5 Z"/></g>
<g><path style="opacity:1" fill="#353230" d="M 165.5,142.5 C 254.668,142.167 343.668,142.501 432.5,143.5C 430.033,144.218 427.2,144.551 424,144.5C 337.736,143.835 251.569,143.168 165.5,142.5 Z"/></g>
</svg>
