<?xml version="1.0" encoding="UTF-8"?>
<!DOCTYPE svg PUBLIC "-//W3C//DTD SVG 1.1//EN" "http://www.w3.org/Graphics/SVG/1.1/DTD/svg11.dtd">
<svg xmlns="http://www.w3.org/2000/svg" version="1.1" width="512px" height="512px" style="shape-rendering:geometricPrecision; text-rendering:geometricPrecision; image-rendering:optimizeQuality; fill-rule:evenodd; clip-rule:evenodd" xmlns:xlink="http://www.w3.org/1999/xlink">
<g><path style="opacity:0.993" fill="#f12e12" d="M 328.5,70.5 C 279.833,70.5 231.167,70.5 182.5,70.5C 214.711,42.2912 251.377,34.7912 292.5,48C 306.249,52.9581 318.249,60.4581 328.5,70.5 Z"/></g>
<g><path style="opacity:0.996" fill="#f13514" d="M 182.5,70.5 C 231.167,70.5 279.833,70.5 328.5,70.5C 331.13,72.6281 333.63,74.9614 336,77.5C 339.441,81.1018 342.275,85.1018 344.5,89.5C 285.002,90.4991 225.336,90.8324 165.5,90.5C 170.446,83.2207 176.113,76.5541 182.5,70.5 Z"/></g>
<g><path style="opacity:0.996" fill="#f13b16" d="M 344.5,89.5 C 349.118,95.0665 352.452,101.4 354.5,108.5C 288.5,108.5 222.5,108.5 156.5,108.5C 158.448,101.938 161.448,95.9376 165.5,90.5C 225.336,90.8324 285.002,90.4991 344.5,89.5 Z"/></g>
<g><path style="opacity:0.997" fill="#f24118" d="M 156.5,108.5 C 222.5,108.5 288.5,108.5 354.5,108.5C 356.943,113.5 358.61,118.834 359.5,124.5C 290.104,126.171 220.437,127.171 150.5,127.5C 151.726,120.826 153.726,114.493 156.5,108.5 Z"/></g>
<g><path style="opacity:0.997" fill="#f2471a" d="M 359.5,124.5 C 361.322,130.574 362.322,136.907 362.5,143.5C 291.167,143.5 219.833,143.5 148.5,143.5C 148.701,138.093 149.368,132.76 150.5,127.5C 220.437,127.171 290.104,126.171 359.5,124.5 Z"/></g>
<g><path style="opacity:0.996" fill="#f24e1c" d="M 148.5,143.5 C 219.833,143.5 291.167,143.5 362.5,143.5C 362.674,150.535 362.341,157.535 361.5,164.5C 290.762,164.83 220.096,164.497 149.5,163.5C 148.62,156.877 148.287,150.211 148.5,143.5 Z"/></g>
<g><path style="opacity:0.997" fill="#f1541e" d="M 149.5,163.5 C 220.096,164.497 290.762,164.83 361.5,164.5C 360.591,171.143 358.924,177.476 356.5,183.5C 289.175,181.503 221.508,180.837 153.5,181.5C 151.542,175.665 150.209,169.665 149.5,163.5 Z"/></g>
<g><path style="opacity:0.997" fill="#f15a20" d="M 153.5,181.5 C 221.508,180.837 289.175,181.503 356.5,183.5C 355.234,189.36 352.9,194.693 349.5,199.5C 286.833,199.5 224.167,199.5 161.5,199.5C 157.88,193.994 155.214,187.994 153.5,181.5 Z"/></g>
<g><path style="opacity:0.996" fill="#f26022" d="M 161.5,199.5 C 224.167,199.5 286.833,199.5 349.5,199.5C 346.331,206.662 341.998,212.995 336.5,218.5C 309.835,217.833 283.002,217.5 256,217.5C 228.825,217.5 201.992,218.167 175.5,219.5C 169.673,213.668 165.006,207.002 161.5,199.5 Z"/></g>
<g><path style="opacity:0.995" fill="#f36623" d="M 336.5,218.5 C 330.142,226.189 322.809,232.856 314.5,238.5C 275.167,237.167 235.833,237.167 196.5,238.5C 188.526,233.19 181.526,226.857 175.5,219.5C 201.992,218.167 228.825,217.5 256,217.5C 283.002,217.5 309.835,217.833 336.5,218.5 Z"/></g>
<g><path style="opacity:0.982" fill="#f36d25" d="M 196.5,238.5 C 235.833,237.167 275.167,237.167 314.5,238.5C 285.824,256.368 255.157,260.534 222.5,251C 213.26,247.873 204.593,243.706 196.5,238.5 Z"/></g>
<g><path style="opacity:0.998" fill="#f37c2a" d="M 361.5,298.5 C 290.335,299.499 219.002,299.833 147.5,299.5C 170.991,287.539 195.991,280.373 222.5,278C 264.497,273.249 305.497,277.582 345.5,291C 351.149,293.039 356.482,295.539 361.5,298.5 Z"/></g>
<g><path style="opacity:0.997" fill="#f3812c" d="M 361.5,298.5 C 369.501,301.829 376.834,306.162 383.5,311.5C 298.332,311.833 213.332,311.499 128.5,310.5C 134.37,306.064 140.703,302.397 147.5,299.5C 219.002,299.833 290.335,299.499 361.5,298.5 Z"/></g>
<g><path style="opacity:0.998" fill="#f4862d" d="M 128.5,310.5 C 213.332,311.499 298.332,311.833 383.5,311.5C 390.779,316.446 397.446,322.113 403.5,328.5C 304.931,329.832 206.264,329.832 107.5,328.5C 113.886,321.781 120.886,315.781 128.5,310.5 Z"/></g>
<g><path style="opacity:0.998" fill="#f48c2f" d="M 107.5,328.5 C 206.264,329.832 304.931,329.832 403.5,328.5C 409.224,333.891 414.224,339.891 418.5,346.5C 309.999,346.833 201.665,346.499 93.5,345.5C 97.4413,339.226 102.108,333.56 107.5,328.5 Z"/></g>
<g><path style="opacity:0.998" fill="#f49130" d="M 93.5,345.5 C 201.665,346.499 309.999,346.833 418.5,346.5C 421.083,349.997 423.416,353.664 425.5,357.5C 312.167,357.5 198.833,357.5 85.5,357.5C 87.8077,353.205 90.4744,349.205 93.5,345.5 Z"/></g>
<g><path style="opacity:0.999" fill="#f39432" d="M 85.5,357.5 C 198.833,357.5 312.167,357.5 425.5,357.5C 426.773,359.713 427.773,362.046 428.5,364.5C 313.167,364.5 197.833,364.5 82.5,364.5C 83.2271,362.046 84.2271,359.713 85.5,357.5 Z"/></g>
<g><path style="opacity:0.999" fill="#f49833" d="M 82.5,364.5 C 197.833,364.5 313.167,364.5 428.5,364.5C 431.675,370.684 433.342,377.351 433.5,384.5C 314.833,384.5 196.167,384.5 77.5,384.5C 77.6583,377.351 79.3249,370.684 82.5,364.5 Z"/></g>
<g><path style="opacity:0.999" fill="#f49f35" d="M 77.5,384.5 C 196.167,384.5 314.833,384.5 433.5,384.5C 434.639,390.674 434.305,396.674 432.5,402.5C 314.5,402.5 196.5,402.5 78.5,402.5C 76.6945,396.674 76.3612,390.674 77.5,384.5 Z"/></g>
<g><path style="opacity:0.999" fill="#f4a537" d="M 78.5,402.5 C 196.5,402.5 314.5,402.5 432.5,402.5C 431.872,409.052 429.872,415.052 426.5,420.5C 312.195,420.496 198.195,420.496 84.5,420.5C 81.1283,415.052 79.1283,409.052 78.5,402.5 Z"/></g>
<g><path style="opacity:0.998" fill="#f5ab38" d="M 426.5,420.5 C 423.727,427.052 419.727,432.719 414.5,437.5C 308.5,437.5 202.5,437.5 96.5,437.5C 91.2734,432.719 87.2734,427.052 84.5,420.5C 198.195,420.496 312.195,420.496 426.5,420.5 Z"/></g>
<g><path style="opacity:0.996" fill="#f5b13a" d="M 96.5,437.5 C 202.5,437.5 308.5,437.5 414.5,437.5C 406.285,447.274 396.285,454.607 384.5,459.5C 298.002,458.501 211.335,458.167 124.5,458.5C 113.464,453.801 104.131,446.801 96.5,437.5 Z"/></g>
<g><path style="opacity:0.942" fill="#f5b73c" d="M 124.5,458.5 C 211.335,458.167 298.002,458.501 384.5,459.5C 373.267,465.143 361.267,468.31 348.5,469C 286.5,469.667 224.5,469.667 162.5,469C 149.032,467.969 136.366,464.469 124.5,458.5 Z"/></g>
</svg>
