<svg xmlns="http://www.w3.org/2000/svg" width="624" height="182" style="shape-rendering:geometricPrecision;text-rendering:geometricPrecision;image-rendering:optimizeQuality;fill-rule:evenodd;clip-rule:evenodd"><path fill="#575655" d="M443.5 26.5v1c-91.258.018-182.592.018-274 0v-1a9402.157 9402.157 0 0 1 274 0Z" style="opacity:1"/><path fill="#201f1e" d="M169.5 27.5c91.408.018 182.742.018 274 0 .438-.065.772.101 1 .5-.578 1.417-1.578 2.25-3 2.5-90.334-.167-180.667 0-271 .5a129.7 129.7 0 0 0-7 1.5v-4l6-1Z" style="opacity:1"/><path fill="#323232" d="M169.5 26.5v1l-6 1v4c-7.583 4.458-12.249 11.124-14 20a56.689 56.689 0 0 0-7 2.5c-1.614 2.127-3.614 3.627-6 4.5v-3a20.676 20.676 0 0 0-5 1v-1a300.143 300.143 0 0 1 14.5-8c2.884-12.72 10.717-20.053 23.5-22Z" style="opacity:1"/><path fill="#343433" d="M443.5 27.5v-1c10.599 2.267 17.266 8.6 20 19-1.424 2.014-2.09 4.348-2 7-2.155-11.486-8.821-18.82-20-22 1.422-.25 2.422-1.083 3-2.5-.228-.399-.562-.565-1-.5Z" style="opacity:1"/><path fill="#e9c59a" d="M447.5 47.5c-.096 3.261-.93 6.594-2.5 10a17.833 17.833 0 0 0-5.5-4.5c-89.667-.667-179.333-.667-269 0-3.626 2.251-4.793 5.418-3.5 9.5 1.776 1.036 3.609 1.036 5.5 0a24.444 24.444 0 0 0-3 5 7.248 7.248 0 0 1-2.5-2 32.444 32.444 0 0 1-1.5 6c1.109 1.465.609 2.465-1.5 3-.181-3.195-.681-6.195-1.5-9-1.283-5.979-1.116-11.979.5-18 2.076-3.088 4.909-4.921 8.5-5.5 89.195-.09 178.528-.09 268 0 3.691.55 6.357 2.383 8 5.5Z" style="opacity:1"/><path fill="#353433" d="M561.5 48.5c-1.098.897-1.098 1.73 0 2.5a4.932 4.932 0 0 1-3 .5 126.98 126.98 0 0 0-37 1 17.758 17.758 0 0 1-7-1.5c1.237-.232 2.237-.732 3-1.5 11.287-3.592 22.953-4.758 35-3.5 3.297.204 6.297 1.037 9 2.5Z" style="opacity:1"/><path fill="#323130" d="M102.5 51.5c1.135.974 2.135 2.141 3 3.5a45.309 45.309 0 0 1-7-.5c-13.782-3.607-27.782-4.774-42-3.5a163.344 163.344 0 0 1-10 2.5c-2.37.351-4.703.518-7 .5.556-.383.89-.883 1-1.5 8.296-5.298 17.462-7.632 27.5-7 11.831.267 23.331 2.267 34.5 6Z" style="opacity:1"/><path fill="#4c4b4a" d="M517.5 49.5c-.763.768-1.763 1.268-3 1.5a17.758 17.758 0 0 0 7 1.5c-2.099 1.112-4.433 1.779-7 2 .418-.722 1.084-1.222 2-1.5a20.093 20.093 0 0 0-6-1.5c2.015-1.424 4.348-2.09 7-2Z" style="opacity:1"/><path fill="#efd0ab" d="M447.5 47.5c1.435 3.05 2.102 6.383 2 10-.005 2.197-.338 4.197-1 6v-5h-3c.585 2.76-.415 4.427-3 5a18362.935 18362.935 0 0 0-270-1c-1.891 1.036-3.724 1.036-5.5 0-1.293-4.082-.126-7.249 3.5-9.5 89.667-.667 179.333-.667 269 0a17.833 17.833 0 0 1 5.5 4.5c1.57-3.406 2.404-6.739 2.5-10Z" style="opacity:1"/><path fill="#454443" d="M102.5 51.5a123.075 123.075 0 0 0 29 5v1c-4.06-.015-8.06.485-12 1.5.916.278 1.582.778 2 1.5-7.973-1.242-15.64-3.242-23-6 2.369.351 4.703.518 7 .5-.865-1.359-1.865-2.526-3-3.5Z" style="opacity:1"/><path fill="#333232" d="M463.5 45.5a19.588 19.588 0 0 1 2 3.5c4.624 1.31 8.624 3.644 12 7 4 .667 8 .667 12 0a472.335 472.335 0 0 1 21-4.5c2.064.187 4.064.687 6 1.5-.916.278-1.582.778-2 1.5a149.306 149.306 0 0 1-31 7c-5.966.016-10.966-2.15-15-6.5a58.799 58.799 0 0 0-7-2.5c-.09-2.652.576-4.986 2-7Z" style="opacity:1"/><path fill="#2b2b2a" d="M136.5 59.5c-4.787 2.19-9.787 2.524-15 1-.418-.722-1.084-1.222-2-1.5a47.181 47.181 0 0 1 12-1.5 20.676 20.676 0 0 1 5-1v3Z" style="opacity:1"/><path fill="#e5be92" d="M448.5 63.5c.87 10.5.87 20.834 0 31a84.9 84.9 0 0 0-.5-13 38.034 38.034 0 0 1-6.5 2.5c-90.667.667-181.333.667-272 0-2.362-1.51-4.695-3.01-7-4.5v-14c.819 2.805 1.319 5.805 1.5 9 2.109-.535 2.609-1.535 1.5-3a32.444 32.444 0 0 0 1.5-6 7.248 7.248 0 0 0 2.5 2 24.444 24.444 0 0 1 3-5c90.022-.328 180.022.005 270 1 2.585-.573 3.585-2.24 3-5h3v5Z" style="opacity:1"/><path fill="#303232" d="M40.5 52.5c-.11.617-.444 1.117-1 1.5 2.297.018 4.63-.149 7-.5-6.618 3.618-11.952 8.618-16 15 .38-3.067-.62-4.067-3-3 2.667-6 7-10.333 13-13Z" style="opacity:1"/><path fill="#a27b5c" d="M157.5 65.5c-.996-.086-1.829.248-2.5 1-.674-1.078-1.674-1.745-3-2a35.822 35.822 0 0 0-6.5 3c3.351-4.479 7.351-5.146 12-2Z" style="opacity:1"/><path fill="#373636" d="M561.5 48.5c13.226 3.56 21.893 11.893 26 25-1.956-1.675-3.289-1.342-4 1-4.822-11.489-13.155-19.155-25-23a4.932 4.932 0 0 0 3-.5c-1.098-.77-1.098-1.603 0-2.5Z" style="opacity:1"/><path fill="#7d481a" d="M572.5 90.5a12.93 12.93 0 0 0-.5-5 9.457 9.457 0 0 1-1.5 2.5 62.884 62.884 0 0 1-17 7 240.488 240.488 0 0 1-31 0 198.328 198.328 0 0 0-37-5.5c-7.802-.716-15.135.784-22 4.5-1.667.667-3.333.667-5 0-1.782-7.23-2.615-14.73-2.5-22.5-2.152-1.777-1.985-3.277.5-4.5-.744-1.039-1.744-1.539-3-1.5 2.637-1.927 5.637-2.427 9-1.5 6.036 5.57 13.202 8.403 21.5 8.5A753.438 753.438 0 0 0 533.5 62c11.754-1.982 22.754.018 33 6 6.633 6.381 8.633 13.881 6 22.5Z" style="opacity:1"/><path fill="#5d5a58" d="M25.5 69.5c.09 2.652-.576 4.986-2 7-.09-2.652.576-4.986 2-7Z" style="opacity:1"/><path fill="#3a3938" d="M587.5 73.5c2.667 7.667 2.667 15.333 0 23-2.259-.844-3.259-2.51-3-5a105.28 105.28 0 0 0-1-17c.711-2.342 2.044-2.675 4-1Z" style="opacity:1"/><path fill="#af7647" d="M529.5 68.5c11.568-1.317 22.568.516 33 5.5.88 1.356 1.214 2.856 1 4.5a85.524 85.524 0 0 0-27-4 628.879 628.879 0 0 0-53 6l-9-.5a176.127 176.127 0 0 0-17-6.5c-.415-2.448.585-3.781 3-4l13 6.5c7 .667 14 .667 21 0a3093.26 3093.26 0 0 0 35-7.5Z" style="opacity:1"/><path fill="#2e2e2c" d="M30.5 68.5c-3.969 9.11-4.636 18.444-2 28-.343 1.725-1.343 2.225-3 1.5l2-1a20.665 20.665 0 0 1-4-3.5c-1.304-5.766-1.304-11.433 0-17 1.424-2.014 2.09-4.348 2-7 .16-1.653.826-2.986 2-4 2.38-1.067 3.38-.067 3 3Z" style="opacity:1"/><path fill="#dbb182" d="M162.5 79.5c2.305 1.49 4.638 2.99 7 4.5 90.667.667 181.333.667 272 0a38.034 38.034 0 0 0 6.5-2.5 84.9 84.9 0 0 1 .5 13v10a18.838 18.838 0 0 1-7 2.5c-90.667.667-181.333.667-272 0a42.796 42.796 0 0 1-7-3.5c-1.078-8.16-1.078-16.16 0-24Z" style="opacity:1"/><path fill="#80491b" d="M145.5 67.5a35.822 35.822 0 0 1 6.5-3c1.326.255 2.326.922 3 2 .671-.752 1.504-1.086 2.5-1a181.045 181.045 0 0 1 0 38c.166-10.339 0-20.672-.5-31a124.589 124.589 0 0 0-2 19c-.576 2.352-2.076 3.352-4.5 3a120.555 120.555 0 0 0-14-4.5c-8-.667-16-.667-24 0-20.45 5.944-41.117 6.944-62 3A64.753 64.753 0 0 1 39 86.5a4.932 4.932 0 0 0-.5 3c-2.48-13.744 3.187-22.578 17-26.5a71.628 71.628 0 0 1 22-1 929.758 929.758 0 0 0 51 10.5c6.107-.275 11.774-1.942 17-5Z" style="opacity:1"/><path fill="#b27949" d="M60.5 68.5c18.065-.322 35.732 2.178 53 7.5 8.73.876 17.396.543 26-1a48.672 48.672 0 0 0 10.5-5.5c1.622.454 2.788 1.454 3.5 3-8.07 5.225-16.904 7.892-26.5 8a1489.8 1489.8 0 0 0-54-6c-8.341-.68-16.341.653-24 4-3.12-1.093-3.287-2.593-.5-4.5a95.6 95.6 0 0 1 12-5.5Z" style="opacity:1"/><path fill="#70411c" d="M453.5 65.5c1.256-.039 2.256.461 3 1.5-2.485 1.223-2.652 2.723-.5 4.5-.115 7.77.718 15.27 2.5 22.5 1.667.667 3.333.667 5 0 6.865-3.716 14.198-5.216 22-4.5 12.504.667 24.837 2.5 37 5.5 10.333.667 20.667.667 31 0a62.884 62.884 0 0 0 17-7 9.457 9.457 0 0 0 1.5-2.5c.494 1.634.66 3.3.5 5-.556 3.73-2.222 6.897-5 9.5-10.992 7.094-22.992 9.427-36 7a628.406 628.406 0 0 1-34-8c-8.682-1.918-17.348-1.918-26 0a2127.404 2127.404 0 0 1-11.5 7.5c-2.874-.459-5.208-1.793-7-4a233.366 233.366 0 0 1 .5-37Z" style="opacity:1"/><path fill="#6d3e17" d="M157.5 103.5c-2.637 1.927-5.637 2.427-9 1.5-5.647-5.624-12.48-8.124-20.5-7.5a77.113 77.113 0 0 0-13.5 1.5c-11.338 2.669-22.671 5.335-34 8-11.91 1.843-23.244.177-34-5-4.538-3.025-7.204-7.191-8-12.5a4.932 4.932 0 0 1 .5-3A64.753 64.753 0 0 0 50.5 93c20.883 3.944 41.55 2.944 62-3 8-.667 16-.667 24 0a120.555 120.555 0 0 1 14 4.5c2.424.352 3.924-.648 4.5-3 .182-6.397.848-12.73 2-19 .5 10.328.666 20.661.5 31Z" style="opacity:1"/><path fill="#484947" d="M23.5 93.5a20.665 20.665 0 0 0 4 3.5l-2 1c1.657.725 2.657.225 3-1.5 1.508 1.681 2.508 3.681 3 6-1.937-.695-2.937.305-3 3-2.737-3.483-4.403-7.483-5-12Z" style="opacity:1"/><path fill="#cc9c6f" d="M162.5 103.5a42.796 42.796 0 0 0 7 3.5c90.667.667 181.333.667 272 0a18.838 18.838 0 0 0 7-2.5c1.333 4.667 1.333 9.333 0 14a18.453 18.453 0 0 0-.5-6c-1.952 2.394-4.452 3.894-7.5 4.5-90.333.667-180.667.667-271 0-2.421-3.311-4.421-3.145-6 .5.863 1.226.863 2.56 0 4-.904-2.138-1.571-4.471-2-7a39.654 39.654 0 0 0 1-11Z" style="opacity:1"/><path fill="#1a1919" d="M122.5 109.5c4.661-.532 8.994.301 13 2.5-4.851.174-9.518.674-14 1.5a34.033 34.033 0 0 1-8-1.5c1.237-.232 2.237-.732 3-1.5 1.765-.961 3.765-1.295 6-1Z" style="opacity:1"/><path fill="#161515" d="M489.5 109.5h2c.969.809 1.802 1.809 2.5 3 1.049-1.017 2.216-1.184 3.5-.5-2.177 1.202-4.511 1.702-7 1.5h-4c-3.141-.821-6.475-1.321-10-1.5a3.647 3.647 0 0 0 1-1.5 36.875 36.875 0 0 1 12-1Z" style="opacity:1"/><path fill="#333535" d="M584.5 91.5c-.259 2.49.741 4.156 3 5-4.278 12.821-12.945 21.155-26 25 1.675-1.956 1.342-3.289-1-4 12.525-4.524 20.525-13.19 24-26Z" style="opacity:1"/><path fill="#393837" d="M491.5 109.5c7.975 1.243 15.642 3.243 23 6-2.994-.354-3.994.646-3 3a161.173 161.173 0 0 1-21-5c2.489.202 4.823-.298 7-1.5-1.284-.684-2.451-.517-3.5.5-.698-1.191-1.531-2.191-2.5-3Z" style="opacity:1"/><path fill="#303130" d="M31.5 102.5c5.824 8.071 13.49 13.404 23 16-1.175-.219-2.175.114-3 1 1.124 1.359 2.458 2.359 4 3-11.79-1.387-20.79-7.054-27-17 .063-2.695 1.063-3.695 3-3Z" style="opacity:1"/><path fill="#3a3837" d="M116.5 110.5c-.763.768-1.763 1.268-3 1.5a34.033 34.033 0 0 0 8 1.5 710.585 710.585 0 0 1-36 9c1.502-2.329.836-3.663-2-4a397.336 397.336 0 0 1 33-8Z" style="opacity:1"/><path fill="#bb8d66" d="M448.5 118.5c-.73 5.232-3.73 8.399-9 9.5-89 .667-178 .667-267 0-4.513-.242-7.513-2.408-9-6.5.863-1.44.863-2.774 0-4 1.579-3.645 3.579-3.811 6-.5 90.333.667 180.667.667 271 0 3.048-.606 5.548-2.106 7.5-4.5.495 1.973.662 3.973.5 6Z" style="opacity:1"/><path fill="#3e3e3e" d="M489.5 109.5a36.875 36.875 0 0 0-12 1 3.647 3.647 0 0 1-1 1.5c3.525.179 6.859.679 10 1.5a50.464 50.464 0 0 0-10 .5 29.62 29.62 0 0 1-11 7c-1.996 7.985-6.329 14.319-13 19-2.15 1.411-4.484 2.245-7 2.5.73-1.545 2.063-2.378 4-2.5-1.063-1.188-2.397-1.688-4-1.5 9.062-4.252 14.395-11.419 16-21.5a20.51 20.51 0 0 0 8-3c1.805-2.403 4.138-4.07 7-5 4.52-.814 8.854-.647 13 .5Z" style="opacity:1"/><path fill="#353432" d="M514.5 115.5a641.489 641.489 0 0 1 22 4c2.478.664 5.145.997 8 1 3.969.206 7.635-.461 11-2 1.542-.801 3.208-1.134 5-1 2.342.711 2.675 2.044 1 4-17.005 4.122-33.672 3.122-50-3-.994-2.354.006-3.354 3-3Z" style="opacity:1"/><path fill="#555452" d="M555.5 118.5c-3.365 1.539-7.031 2.206-11 2-2.855-.003-5.522-.336-8-1 6.369.153 12.703-.18 19-1Z" style="opacity:1"/><path fill="#343332" d="M54.5 118.5a108.973 108.973 0 0 0 29 0c2.836.337 3.502 1.671 2 4-10.149 2.497-20.149 2.497-30 0-1.542-.641-2.876-1.641-4-3 .825-.886 1.825-1.219 3-1Z" style="opacity:1"/><path fill="#3a3938" d="M122.5 109.5c3.811-1.145 7.811-1.312 12-.5l11 7a12.93 12.93 0 0 0 5 .5c1.058 10.142 6.058 17.475 15 22-1.548.321-2.215 1.321-2 3-9.276-3.786-15.276-10.62-18-20.5a67.876 67.876 0 0 1-12-7 72.367 72.367 0 0 0-12-.5c4.482-.826 9.149-1.326 14-1.5-4.006-2.199-8.339-3.032-13-2.5Z" style="opacity:1"/><path fill="#161513" d="M165.5 138.5h1c.763.768 1.763 1.268 3 1.5 90.355.172 180.688.672 271 1.5a32.175 32.175 0 0 0 5-3c1.603-.188 2.937.312 4 1.5-1.937.122-3.27.955-4 2.5-4.18 1.546-8.513 1.879-13 1a17823.86 17823.86 0 0 0-267-1c-.992.172-1.658-.162-2-1-.215-1.679.452-2.679 2-3Z" style="opacity:1"/><path fill="#3b3a39" d="M166.5 138.5a9747.682 9747.682 0 0 0 279 0 32.175 32.175 0 0 1-5 3 37305.884 37305.884 0 0 0-271-1.5c-1.237-.232-2.237-.732-3-1.5Z" style="opacity:1"/><path fill="#353230" d="M165.5 142.5c89.168-.333 178.168.001 267 1-2.467.718-5.3 1.051-8.5 1-86.264-.665-172.431-1.332-258.5-2Z" style="opacity:1"/></svg>